<?xml version="1.0" standalone="no"?>
<!DOCTYPE svg PUBLIC "-//W3C//DTD SVG 1.1//EN" "http://www.w3.org/Graphics/SVG/1.1/DTD/svg11.dtd" >
<svg xmlns="http://www.w3.org/2000/svg">
<metadata>
<json>
<![CDATA[
{
	"fontFamily": "icomoon",
	"majorVersion": 1,
	"minorVersion": 0,
	"description": "Font generated by IcoMoon.",
	"version": "Version 1.0",
	"fontId": "icomoon",
	"psName": "icomoon",
	"subFamily": "Regular",
	"fullName": "icomoon"
}
]]>
</json>
</metadata>
<defs>
<font id="icomoon" horiz-adv-x="1024">
<font-face units-per-em="1024" ascent="960" descent="-64" />
<missing-glyph horiz-adv-x="1024" />
<glyph unicode="&#x20;" horiz-adv-x="512" d="" />
<glyph unicode="&#xe900;" glyph-name="pin-outline" data-tags="pin-outline" d="M1013.543 657.829c-1.429 3.543-3.6 6.914-6.4 9.657l-277.6 277.657c-2.8 2.8-6.114 4.971-9.657 6.4s-7.257 2.114-10.971 2.114c-3.714 0-7.429-0.686-10.971-2.114s-6.914-3.6-9.657-6.4l-87.657-87.657c-2.743-2.743-4.914-6.114-6.343-9.6s-2.114-7.2-2.114-10.914c0-3.714 0.686-7.371 2.114-10.914 1.429-3.486 3.6-6.857 6.343-9.6l37.371-37.371-138.286-78.171-127.029 127.029c-2.857 2.857-6.286 5.086-9.943 6.571s-7.429 2.171-11.257 2.171c-3.829 0-7.6-0.743-11.257-2.171-3.6-1.486-7.086-3.714-9.943-6.571v0l-107.6-107.6 195.657-195.657-418.457-585.829 565.6 438.629 194.971-194.971 107.657 107.657c2.857 2.857 5.086 6.286 6.571 9.943s2.171 7.429 2.171 11.257c0 3.829-0.743 7.6-2.171 11.257-1.486 3.6-3.714 7.086-6.571 9.943v0l-113.6 113.6 78.514 137.943 45.429-45.429c2.8-2.8 6.114-4.971 9.6-6.4 3.543-1.429 7.2-2.114 10.914-2.114s7.371 0.686 10.914 2.114c3.486 1.429 6.857 3.6 9.6 6.343l87.657 87.657c2.8 2.8 4.971 6.114 6.4 9.657s2.114 7.257 2.114 10.971c0.057 3.657-0.686 7.371-2.114 10.914zM641.029 817.086v0 0 0z" />
<glyph unicode="&#xe901;" glyph-name="pin" data-tags="pin" d="M1013.543 657.829c-1.429 3.543-3.6 6.914-6.4 9.657l-277.6 277.657c-2.8 2.8-6.114 4.971-9.657 6.4s-7.257 2.114-10.971 2.114c-3.714 0-7.429-0.686-10.971-2.114s-6.914-3.6-9.657-6.4l-87.657-87.657c-2.743-2.743-4.914-6.114-6.343-9.6s-2.114-7.2-2.114-10.914c0-3.714 0.686-7.371 2.114-10.914 1.429-3.486 3.6-6.857 6.343-9.6l37.371-37.371-138.286-78.171-127.029 127.029c-2.857 2.857-6.286 5.086-9.943 6.571s-7.429 2.171-11.257 2.171c-3.829 0-7.6-0.743-11.257-2.171-3.6-1.486-7.086-3.714-9.943-6.571v0l-107.6-107.6 195.657-195.657-418.457-585.829 565.6 438.629 194.971-194.971 107.657 107.657c2.857 2.857 5.086 6.286 6.571 9.943s2.171 7.429 2.171 11.257c0 3.829-0.743 7.6-2.171 11.257-1.486 3.6-3.714 7.086-6.571 9.943v0l-113.6 113.6 78.514 137.943 45.429-45.429c2.8-2.8 6.114-4.971 9.6-6.4 3.543-1.429 7.2-2.114 10.914-2.114s7.371 0.686 10.914 2.114c3.486 1.429 6.857 3.6 9.6 6.343l87.657 87.657c2.8 2.8 4.971 6.114 6.4 9.657s2.114 7.257 2.114 10.971c0.057 3.657-0.686 7.371-2.114 10.914zM641.029 817.086v0 0 0zM351.486 768.343l456.971-456.971-48-48-456.971 456.971 48 48zM273.143 223.086l186.171 260.629 65.486-65.486-251.657-195.143zM712.571 488l-170.914 170.971 138.286 78.171 111.143-111.143-78.514-138zM898.971 598.914l-238.057 238.057 48 48 238.057-238.114-48-47.943z" />
<glyph unicode="&#xe902;" glyph-name="document-bookmark" data-tags="document-bookmark" d="M512 832h96v-159.811c0-35.82 28.624-64.189 63.933-64.189h128.067v-544.211c0-17.55-14.326-31.789-31.999-31.789h-480.003c-17.448 0-31.999 14.262-31.999 31.855v736.291c0 17.286 14.264 31.855 31.858 31.855h32.142v-352l96 96 96-96v352zM624 864h-335.912c-35.395 0-64.088-28.747-64.088-64.235v-735.531c0-35.476 28.51-64.235 63.918-64.235h480.165c35.301 0 63.918 28.743 63.918 63.705v576.295l-192 224h-16zM640 816l150.398-176h-118.503c-17.475 0-31.896 14.453-31.896 32.281v143.719zM352 832h128v-275.199l-64 64-64-64v275.199z" />
<glyph unicode="&#xe903;" glyph-name="bookmarks" data-tags="bookmarks, ribbons" d="M256 832v-896l320 320 320-320v896zM768 960h-640v-896l64 64v768h576z" />
<glyph unicode="&#xe904;" glyph-name="zoom-out" data-tags="zoom-out" d="M684.416 262.144c-1.451-1.109-2.859-2.347-4.224-3.712s-2.56-2.731-3.712-4.224c-53.675-51.755-126.677-83.541-207.147-83.541-82.475 0-157.099 33.365-211.2 87.467s-87.467 128.725-87.467 211.2 33.365 157.099 87.467 211.2 128.725 87.467 211.2 87.467 157.099-33.365 211.2-87.467 87.467-128.725 87.467-211.2c0-80.469-31.787-153.472-83.584-207.189zM926.165 72.832l-156.8 156.8c52.523 65.707 83.968 149.035 83.968 239.701 0 106.027-43.008 202.069-112.469 271.531s-165.504 112.469-271.531 112.469-202.069-43.008-271.531-112.469-112.469-165.504-112.469-271.531 43.008-202.069 112.469-271.531 165.504-112.469 271.531-112.469c90.667 0 173.995 31.445 239.701 83.968l156.8-156.8c16.683-16.683 43.691-16.683 60.331 0s16.683 43.691 0 60.331zM341.333 426.667h256c23.552 0 42.667 19.115 42.667 42.667s-19.115 42.667-42.667 42.667h-256c-23.552 0-42.667-19.115-42.667-42.667s19.115-42.667 42.667-42.667z" />
<glyph unicode="&#xe905;" glyph-name="zoom-in" data-tags="zoom-in" d="M684.416 262.144c-1.451-1.109-2.859-2.347-4.224-3.712s-2.56-2.731-3.712-4.224c-53.675-51.755-126.677-83.541-207.147-83.541-82.475 0-157.099 33.365-211.2 87.467s-87.467 128.725-87.467 211.2 33.365 157.099 87.467 211.2 128.725 87.467 211.2 87.467 157.099-33.365 211.2-87.467 87.467-128.725 87.467-211.2c0-80.469-31.787-153.472-83.584-207.189zM926.165 72.832l-156.8 156.8c52.523 65.707 83.968 149.035 83.968 239.701 0 106.027-43.008 202.069-112.469 271.531s-165.504 112.469-271.531 112.469-202.069-43.008-271.531-112.469-112.469-165.504-112.469-271.531 43.008-202.069 112.469-271.531 165.504-112.469 271.531-112.469c90.667 0 173.995 31.445 239.701 83.968l156.8-156.8c16.683-16.683 43.691-16.683 60.331 0s16.683 43.691 0 60.331zM341.333 426.667h85.333v-85.333c0-23.552 19.115-42.667 42.667-42.667s42.667 19.115 42.667 42.667v85.333h85.333c23.552 0 42.667 19.115 42.667 42.667s-19.115 42.667-42.667 42.667h-85.333v85.333c0 23.552-19.115 42.667-42.667 42.667s-42.667-19.115-42.667-42.667v-85.333h-85.333c-23.552 0-42.667-19.115-42.667-42.667s19.115-42.667 42.667-42.667z" />
<glyph unicode="&#xe906;" glyph-name="all-directions" data-tags="all-directions" d="M804 665.657l-34.971-34.914 147.943-147.943-377.829-0.114-0.229 378 155.486-155.486 35.029 35.029-217.657 217.657-217.086-217.086 36-35.943 151.086 151.543 0.171-373.829-374.514-0.514 148.457 148.457-35.771 35.714-217.6-217.6 217.657-217.657 41.029 40.343-154.114 154.114h374.914l0.229-375.086-146.8 146.743-40.686-40.686 217.257-217.086 217.543 217.486-40.057 40.057-150.114-150.114-0.229 378.743 378.914-0.057-153.886-154.057 39.771-39.829 216.514 217.086z" />
<glyph unicode="&#xe907;" glyph-name="chevron-left" data-tags="chevron-left" d="M261.040 481.94l388.7 388.68c18.74 18.74 49.14 18.74 67.88 0l45.34-45.34c18.72-18.72 18.74-49.040 0.080-67.8l-308.060-309.48 308.040-309.5c18.68-18.76 18.64-49.080-0.080-67.8l-45.34-45.34c-18.74-18.74-49.14-18.74-67.88 0l-388.68 388.7c-18.74 18.74-18.74 49.14 0 67.88z" />
<glyph unicode="&#xe908;" glyph-name="keyboard-dark" data-tags="keyboard-dark" d="M97 806.8c-34.2-8.2-67.2-34.8-82.8-66.8-14.8-30.4-14.2-16.2-14.2-292s-0.6-261.6 14.2-292c11.2-22.8 33.8-45.6 55.8-56.4 29.4-14.6-3.2-13.6 442-13.6s412.6-1 442 13.6c22 10.8 44.6 33.6 55.8 56.4 14.8 30.4 14.2 16.2 14.2 292 0 209.2-0.6 249.2-3 261-9.8 46.6-49 87-95 97.8-19.2 4.6-810.4 4.4-829 0zM916 720c4.8-2.8 11.6-9 15-13.6l6-8.8v-499.2l-6-8.8c-3.4-4.6-10.2-10.8-15-13.6l-9-5h-790l-9 5c-4.8 2.8-11.6 9-15 13.6l-6 8.8v499.2l6 8.6c6.4 9.2 15.4 15.4 25.6 17.8 3.6 1 182.4 1.4 397.4 1.4l391-0.4 9-5zM243.8 597.2c-19.6-5.2-29.8-19-29.8-40.4 0.2-20.4 10.2-35.6 27.8-41.8 11.8-4 17.4-3.8 29.2 1.8 16.2 7.4 25.2 22 25.2 40.4 0 27.6-25.4 47-52.4 40zM416.2 597.6c-25.8-4.6-39.6-34.8-27.4-60.6 5.6-12 9.2-15.4 22-21.2 8.4-3.6 10.6-4 19-1.8 23.4 5.8 36.8 21 36.8 41.8 0 27.6-23 46.8-50.4 41.8zM576 593.6c-21.4-11.6-27.8-40.4-13.8-62.8 4.8-7.8 17.4-15.8 28-17.8 22.8-4.2 47.6 18.4 47.8 43.2 0 12.6-8 27.8-18.4 35-11.6 8.2-30.8 9.2-43.6 2.4zM748 593.6c-10.4-5.4-20.8-19.4-22.6-30.6-2-12 2-25.6 10.2-35 15.6-18.4 35.6-20.4 57.6-5.8 17.2 11.8 22 40.6 9.6 58.2-12 17-35.8 22.8-54.8 13.2zM244 384.2c-20.4-6.2-32-21.2-32-41.2 0-37.4 45.4-58 70.2-31.6 10.6 11.4 11.6 13.2 13.6 23.4 2.8 15-0.6 26.2-11.6 37.2-12 12-26.4 16.4-40.2 12.2zM753.2 383c-17-6-25.4-17.8-26.8-37.4-2.2-29.8 19.4-49.8 47.2-44 25 5.2 39.2 27 34 51.8-2.8 12.6-17 27-30 30.2-11.8 3-14.6 3-24.4-0.6zM409 379.2c-11.8-5.4-15.4-9.2-20.8-21.2-7.6-16.6-3.8-34.2 9.8-47.4 11.8-11.6 12.4-11.6 114-11.6s102.2 0 114 11.6c14 13.6 17.4 31 9.2 48.4-5.4 11.8-9.2 15.4-21.2 20.8-8.6 4-12.8 4.2-102 4.2h-93l-10-4.8z" />
<glyph unicode="&#xe909;" glyph-name="keyboard" data-tags="keyboard" d="M97 806.8c-34.2-8.2-67.2-34.8-82.8-66.8-14.8-30.4-14.2-16.2-14.2-292s-0.6-261.6 14.2-292c11.2-22.8 33.8-45.6 55.8-56.4 29.4-14.6-3.2-13.6 442-13.6s412.6-1 442 13.6c22 10.8 44.6 33.6 55.8 56.4 14.8 30.4 14.2 16.2 14.2 292 0 209.2-0.6 249.2-3 261-9.8 46.6-49 87-95 97.8-19.2 4.6-810.4 4.4-829 0zM916 720c4.8-2.8 11.6-9 15-13.6l6-8.8v-499.2l-6-8.8c-3.4-4.6-10.2-10.8-15-13.6l-9-5h-790l-9 5c-4.8 2.8-11.6 9-15 13.6l-6 8.8v499.2l6 8.6c6.4 9.2 15.4 15.4 25.6 17.8 3.6 1 182.4 1.4 397.4 1.4l391-0.4 9-5zM243.8 597.2c-19.6-5.2-29.8-19-29.8-40.4 0.2-20.4 10.2-35.6 27.8-41.8 11.8-4 17.4-3.8 29.2 1.8 16.2 7.4 25.2 22 25.2 40.4 0 27.6-25.4 47-52.4 40zM416.2 597.6c-25.8-4.6-39.6-34.8-27.4-60.6 5.6-12 9.2-15.4 22-21.2 8.4-3.6 10.6-4 19-1.8 23.4 5.8 36.8 21 36.8 41.8 0 27.6-23 46.8-50.4 41.8zM576 593.6c-21.4-11.6-27.8-40.4-13.8-62.8 4.8-7.8 17.4-15.8 28-17.8 22.8-4.2 47.6 18.4 47.8 43.2 0 12.6-8 27.8-18.4 35-11.6 8.2-30.8 9.2-43.6 2.4zM748 593.6c-10.4-5.4-20.8-19.4-22.6-30.6-2-12 2-25.6 10.2-35 15.6-18.4 35.6-20.4 57.6-5.8 17.2 11.8 22 40.6 9.6 58.2-12 17-35.8 22.8-54.8 13.2zM244 384.2c-20.4-6.2-32-21.2-32-41.2 0-37.4 45.4-58 70.2-31.6 10.6 11.4 11.6 13.2 13.6 23.4 2.8 15-0.6 26.2-11.6 37.2-12 12-26.4 16.4-40.2 12.2zM753.2 383c-17-6-25.4-17.8-26.8-37.4-2.2-29.8 19.4-49.8 47.2-44 25 5.2 39.2 27 34 51.8-2.8 12.6-17 27-30 30.2-11.8 3-14.6 3-24.4-0.6zM409 379.2c-11.8-5.4-15.4-9.2-20.8-21.2-7.6-16.6-3.8-34.2 9.8-47.4 11.8-11.6 12.4-11.6 114-11.6s102.2 0 114 11.6c14 13.6 17.4 31 9.2 48.4-5.4 11.8-9.2 15.4-21.2 20.8-8.6 4-12.8 4.2-102 4.2h-93l-10-4.8z" />
<glyph unicode="&#xe90a;" glyph-name="maximize-window" data-tags="maximize-window" d="M972.314 587.497v329.777h-332.549v-57.143h236.206l-266.331-273.457 40.914-39.897 264.617 271.709v-230.989zM50.057 320.006v-329.777h332.549v57.143h-236.206l257.263 266.96-40.914 39.897-255.549-265.211v230.989zM644.931-7.377h329.777v332.549h-57.143v-236.206l-273.457 266.331-39.897-40.914 271.709-264.617h-230.989zM377.44 914.88h-329.777v-332.549h57.143v236.206l266.96-257.263 39.897 40.914-265.211 255.549h230.989z" />
<glyph unicode="&#xe90b;" glyph-name="minimize-window" data-tags="minimize-window" d="M609.657 876.571v-329.771h332.514v57.143h-236.171l266.343 273.429-40.914 39.886-264.629-271.714v231.029zM403.657 24.457v329.771h-332.571v-57.143h236.229l-257.257-266.971 40.914-39.886 255.543 265.2v-230.971zM934 355.314h-329.771v-332.571h57.143v236.229l273.429-266.343 39.886 40.914-271.714 264.629h231.029zM81.886 561.257h329.771v332.571h-57.143v-236.229l-266.971 257.257-39.886-40.914 265.2-255.543h-230.971z" />
<glyph unicode="&#xe90c;" glyph-name="shopping-cart" data-tags="shopping-cart" d="M325.714 421.2l7.714-36.857c2.743-13.257 14.4-22.743 27.943-22.743h457.943c13.257 0 24.857 9.2 27.829 22.171l71.371 310.4c1.943 8.457-0.114 17.429-5.486 24.171s-13.657 10.8-22.343 10.8h-469.257c-15.771 0-28.571-12.8-28.571-28.571s12.8-28.571 28.571-28.571v0h433.371l-58.229-253.257h-412l-3.029 14.457-0.114 0.571-82.571 357.943v0.114c-0.114 0.4-0.229 0.857-0.343 1.257 0 0.057-0.057 0.114-0.057 0.171-0.114 0.4-0.229 0.8-0.4 1.2 0 0.057-0.057 0.171-0.057 0.229-0.114 0.343-0.229 0.686-0.4 1.029-0.057 0.114-0.114 0.229-0.114 0.343-0.114 0.286-0.229 0.571-0.343 0.857-0.057 0.171-0.171 0.343-0.229 0.514-0.114 0.229-0.229 0.457-0.343 0.686s-0.229 0.457-0.343 0.629c-0.114 0.171-0.171 0.343-0.286 0.457-0.171 0.286-0.286 0.514-0.457 0.8-0.057 0.114-0.114 0.229-0.229 0.343-0.171 0.286-0.343 0.571-0.571 0.857-0.057 0.057-0.114 0.114-0.114 0.229-0.229 0.343-0.457 0.629-0.686 0.914l-0.114 0.114c-0.229 0.343-0.514 0.629-0.743 0.971l-0.114 0.114c-0.229 0.286-0.514 0.629-0.8 0.914-0.057 0.057-0.114 0.114-0.114 0.171-0.229 0.286-0.514 0.571-0.8 0.8-0.057 0.057-0.171 0.171-0.229 0.229-0.229 0.229-0.457 0.457-0.743 0.686-0.114 0.114-0.229 0.229-0.343 0.343-0.229 0.171-0.4 0.4-0.629 0.571-0.171 0.114-0.343 0.286-0.514 0.4s-0.343 0.286-0.514 0.4c-0.229 0.171-0.457 0.343-0.686 0.514-0.114 0.114-0.229 0.171-0.4 0.286-0.286 0.171-0.571 0.4-0.857 0.571-0.114 0.057-0.171 0.114-0.286 0.171-0.343 0.229-0.629 0.4-0.971 0.571-0.057 0.057-0.114 0.057-0.171 0.114-0.343 0.171-0.686 0.4-1.086 0.571l-0.114 0.057c-0.343 0.171-0.743 0.343-1.086 0.514l-0.171 0.057c-0.343 0.171-0.686 0.286-1.086 0.457-0.057 0.057-0.171 0.057-0.229 0.114-0.343 0.114-0.686 0.229-0.971 0.343-0.114 0.057-0.229 0.057-0.343 0.114-0.286 0.114-0.571 0.171-0.857 0.286-0.171 0.057-0.343 0.114-0.514 0.171-0.229 0.057-0.457 0.114-0.686 0.171s-0.457 0.114-0.743 0.171c-0.171 0.057-0.343 0.057-0.571 0.114-0.286 0.057-0.629 0.114-0.914 0.171-0.114 0-0.229 0.057-0.4 0.057-0.343 0.057-0.743 0.114-1.086 0.114-0.057 0-0.171 0-0.229 0-0.4 0.057-0.8 0.057-1.257 0.114-0.057 0-0.114 0-0.171 0-0.4 0-0.857 0.057-1.314 0.057h-137.714c-15.771 0-28.571-12.8-28.571-28.571s12.8-28.571 28.571-28.571h114.971l77.429-335.6zM870.114 285.486c-8.857 6-18.686 10.743-29.143 14s-21.6 5.029-33.029 5.029c-15.257 0-29.943-3.086-43.257-8.743-20-8.457-36.914-22.514-48.914-40.229-6-8.857-10.743-18.686-14-29.143s-5.029-21.6-5.029-33.029c0-15.257 3.086-29.943 8.743-43.257 8.457-20 22.514-36.914 40.229-48.914 8.857-6 18.686-10.743 29.143-14s21.6-5.029 33.029-5.029c15.257 0 29.943 3.086 43.257 8.743 20 8.457 36.914 22.514 48.914 40.229 6 8.857 10.743 18.686 14 29.143s5.029 21.6 5.029 33.029c0 15.257-3.086 29.943-8.743 43.257-8.457 20-22.514 36.914-40.229 48.914zM857.714 172.286c-4.057-9.657-10.971-17.943-19.6-23.771-4.343-2.914-9.086-5.2-14.114-6.8-5.029-1.543-10.4-2.4-16.057-2.4-7.543 0-14.571 1.486-21.029 4.229-9.657 4.057-17.943 10.971-23.771 19.6-2.914 4.343-5.2 9.086-6.8 14.114-1.543 5.029-2.4 10.4-2.4 16.057 0 7.543 1.486 14.571 4.229 21.029 4.057 9.657 10.971 17.943 19.6 23.771 4.343 2.914 9.086 5.2 14.114 6.8 5.029 1.543 10.4 2.4 16.057 2.4 7.543 0 14.571-1.486 21.029-4.229 9.657-4.057 17.943-10.971 23.771-19.6 2.914-4.343 5.2-9.086 6.8-14.114 1.543-5.029 2.4-10.4 2.4-16.057 0-7.543-1.486-14.571-4.229-21.029zM484.629 285.486c-8.857 6-18.686 10.743-29.143 14s-21.6 5.029-33.029 5.029c-15.257 0-29.943-3.086-43.257-8.743-20-8.457-36.914-22.514-48.914-40.229-6-8.857-10.743-18.686-14-29.143s-5.029-21.6-5.029-33.029c0-15.257 3.086-29.943 8.743-43.257 8.457-20 22.514-36.914 40.229-48.914 8.857-6 18.686-10.743 29.143-14s21.6-5.029 33.029-5.029c15.257 0 29.943 3.086 43.257 8.743 20 8.457 36.914 22.514 48.914 40.229 6 8.857 10.743 18.686 14 29.143s5.029 21.6 5.029 33.029c0 15.257-3.086 29.943-8.743 43.257-8.457 20-22.514 36.914-40.229 48.914zM472.229 172.286c-4.057-9.657-10.971-17.943-19.6-23.771-4.343-2.914-9.086-5.2-14.114-6.8-5.029-1.543-10.4-2.4-16.057-2.4-7.543 0-14.571 1.486-21.029 4.229-9.657 4.057-17.943 10.971-23.771 19.6-2.914 4.343-5.2 9.086-6.8 14.114-1.543 5.029-2.4 10.4-2.4 16.057 0 7.543 1.486 14.571 4.229 21.029 4.057 9.657 10.971 17.943 19.6 23.771 4.343 2.914 9.086 5.2 14.114 6.8 5.029 1.543 10.4 2.4 16.057 2.4 7.543 0 14.571-1.486 21.029-4.229 9.657-4.057 17.943-10.971 23.771-19.6 2.914-4.343 5.2-9.086 6.8-14.114 1.543-5.029 2.4-10.4 2.4-16.057 0-7.543-1.486-14.571-4.229-21.029z" />
<glyph unicode="&#xe90d;" glyph-name="angle-down" data-tags="angle-down" d="M512.171 265.771l286.057 286.057-40.4 40.4-246-245.943-243.6 246-40.057-40.171z" />
<glyph unicode="&#xe90e;" glyph-name="angle-up" data-tags="angle-up" d="M511.943 563.429l-286.057-286.057 40.4-40.4 246 246 243.543-246.057 40.114 40.171z" />
<glyph unicode="&#xe90f;" glyph-name="bars" data-tags="bars" d="M73.143 712h877.714v57.143h-877.714zM73.143 419.429h877.714v57.143h-877.714zM73.143 126.857h877.714v57.143h-877.714z" />
<glyph unicode="&#xe910;" glyph-name="calendar" data-tags="calendar" d="M844.8 849.143v-57.143h96.057v-185.029h-857.086v185.029h102.743v57.143h-159.886v-874.457h971.371v874.457h-153.2zM940.857 406.343h-163.371v143.486h163.371v-143.486zM940.857 205.657h-163.371v143.543h163.371v-143.543zM540.914 349.2h179.486v-143.543h-179.486v143.543zM720.4 406.343h-179.486v143.486h179.486v-143.486zM306.171 349.2h177.6v-143.543h-177.6v143.543zM483.771 406.343h-177.6v143.486h177.6v-143.486zM83.771 349.2h165.257v-143.543h-165.257v143.543zM249.029 549.829v-143.543h-165.257v143.543h165.257zM83.771 148.514h165.257v-116.686h-165.257v116.686zM306.171 148.514h177.6v-116.686h-177.6v116.686zM540.914 148.514h179.486v-116.686h-179.486v116.686zM940.857 31.829h-163.371v116.686h163.371v-116.686zM732.343 904.457h57.143v-167.771h-57.143v167.771zM360.686 849.143h313.143v-57.143h-313.143v57.143zM249.029 904.457h57.143v-167.771h-57.143v167.771z" />
<glyph unicode="&#xe911;" glyph-name="camera" data-tags="camera" d="M632.4 535.543c-17.429 11.771-36.629 21.086-57.2 27.486-20.514 6.4-42.4 9.829-64.914 9.829-30.057 0-58.857-6.114-85.029-17.2-39.2-16.571-72.514-44.229-96.057-79.086-11.771-17.429-21.086-36.629-27.486-57.2-6.4-20.514-9.829-42.4-9.829-64.914 0-30.057 6.114-58.857 17.2-85.029 16.571-39.2 44.229-72.514 79.086-96.057 17.429-11.771 36.629-21.086 57.2-27.486 20.514-6.4 42.4-9.829 64.914-9.829 30.057 0 58.857 6.114 85.029 17.2 39.2 16.571 72.514 44.229 96.057 79.086 11.771 17.429 21.086 36.629 27.486 57.2 6.4 20.514 9.829 42.4 9.829 64.914 0 30.057-6.114 58.857-17.2 85.029-16.571 39.257-44.229 72.514-79.086 96.057zM658.857 291.714c-12.229-28.914-32.686-53.6-58.457-70.971-12.857-8.686-27.029-15.6-42.171-20.286s-31.2-7.257-47.943-7.257c-22.343 0-43.486 4.514-62.743 12.686-28.914 12.229-53.6 32.686-70.971 58.457-8.686 12.857-15.6 27.029-20.286 42.171s-7.257 31.2-7.257 47.943c0 22.343 4.514 43.486 12.686 62.743 12.229 28.914 32.686 53.6 58.457 70.971 12.857 8.686 27.029 15.6 42.171 20.286s31.2 7.257 47.943 7.257c22.343 0 43.486-4.514 62.743-12.686 28.914-12.229 53.6-32.686 70.971-58.457 8.686-12.857 15.6-27.029 20.286-42.171s7.257-31.2 7.257-47.943c0-22.343-4.514-43.486-12.686-62.743zM748.686 733.143l-73.829 117.143h-325.771l-70.343-117.143h-260.629v-757.657h991.6v757.657h-261.029zM75.257 676h235.829l70.343 117.143h261.886l73.829-117.143h235.429v-643.371h-877.314v643.371zM781.257 602.057h99.543v-57.143h-99.543v57.143z" />
<glyph unicode="&#xe912;" glyph-name="check-square" data-tags="check-square" d="M489.257 918h-410.629c-7.543 0-14.857-3.029-20.229-8.343-5.314-5.314-8.343-12.686-8.343-20.229v-870.629c0-7.543 3.029-14.857 8.343-20.229s12.686-8.343 20.229-8.343h870.629c7.543 0 14.857 3.029 20.229 8.343 5.314 5.314 8.343 12.686 8.343 20.229v237.257c0 15.771-12.8 28.571-28.571 28.571s-28.571-12.8-28.571-28.571v-208.686h-813.486v813.486h382.057c15.771 0 28.571 12.8 28.571 28.571s-12.8 28.571-28.571 28.571v0zM296.971 531.143l222.743-261.829c5.829-6.857 14.343-10.514 23.314-10s17.086 5.086 22.114 12.514l407.771 601.6c8.857 13.086 5.429 30.8-7.6 39.657-13.086 8.857-30.8 5.429-39.657-7.6l-386.8-570.571-198.343 233.257c-10.229 12-28.229 13.486-40.286 3.257-12-10.229-13.486-28.229-3.257-40.286z" />
<glyph unicode="&#xe913;" glyph-name="check" data-tags="check" d="M308.914 433.029l149.943-148.857 246.457 251.314-33.143 32.514-213.714-218-116.8 115.943-32.686-32.914z" />
<glyph unicode="&#xe914;" glyph-name="chevron-down" data-tags="chevron-down" d="M86.971 574.343l421.714-414.857 421.543 421.543-40.4 40.4-381.486-381.486-381.314 375.143-40.057-40.743z" />
<glyph unicode="&#xe915;" glyph-name="chevron-up" data-tags="chevron-up" d="M930.229 187.143l-421.714 414.857-421.543-421.543 40.4-40.4 381.486 381.486 381.314-375.143 40.057 40.743z" />
<glyph unicode="&#xe916;" glyph-name="close" data-tags="close" d="M816.171 675.2l-40.4 40.4-264.4-264.343-264.343 264.343-40.4-40.4 264.343-264.4-264.343-264.343 40.4-40.4 264.343 264.343 264.4-264.343 40.4 40.4-264.343 264.343z" />
<glyph unicode="&#xe917;" glyph-name="cog" data-tags="cog" d="M930.686 570.857c0 0 0 0 0 0s0 0 0 0v0zM827.886 749.143c0 0 0-0.057 0 0 0.057 0 0.114 0 0.114-0.057l-0.114 0.057zM921.829 340.571c-2.171 2.229-4.743 4.229-7.486 5.829v0l-52.971 30.629c4.686 23.257 7.086 47.029 7.086 70.914 0 23.943-2.4 47.714-7.086 70.971l53.086 30.629c3.943 2.343 7.429 5.371 10.171 8.971s4.857 7.771 6.057 12.286c0.8 3.029 1.2 6.114 1.2 9.143 0 6.171-1.6 12.286-4.8 17.714l0.057-0.114-77.943 135.029c-2.343 4.057-5.429 7.6-9.086 10.4s-7.771 4.857-12.229 6.057c-3.086 0.857-6.171 1.2-9.2 1.2-3.086 0-6.114-0.4-9.086-1.2s-5.886-2-8.686-3.6l0.171 0.114-53.029-30.629c-35.771 31.657-77.543 55.829-122.857 71.029v61.143c0 4.8-0.971 9.486-2.8 13.714-2.686 6.343-7.143 11.714-12.743 15.486-2.8 1.886-5.943 3.429-9.257 4.457s-6.857 1.6-10.457 1.6h-155.943c-4.8 0-9.486-0.971-13.714-2.8-6.343-2.686-11.714-7.143-15.486-12.743-1.886-2.8-3.429-5.943-4.457-9.257s-1.6-6.857-1.6-10.457v-61.143c-45.314-15.2-87.029-39.314-122.857-71.029l-52.971 30.629c-2.743 1.6-5.657 2.743-8.629 3.543s-6 1.143-9.029 1.143c-2.971 0-5.943-0.4-8.8-1.143l-0.343-0.114c-4.457-1.2-8.629-3.257-12.286-6.057s-6.743-6.286-9.086-10.343v0l-77.943-134.971c-3.086-5.429-4.686-11.486-4.686-17.6 0-3.029 0.4-6.114 1.2-9.086v0 0c1.2-4.514 3.314-8.686 6.057-12.286 2.8-3.6 6.286-6.686 10.286-9.029h0.057l53.029-30.571c-4.743-23.371-7.143-47.143-7.143-71.029 0-23.829 2.4-47.6 7.143-70.914l-52.971-30.629c-2.8-1.6-5.314-3.6-7.486-5.829-3.314-3.371-5.829-7.257-7.543-11.486-1.714-4.171-2.571-8.686-2.571-13.257 0-2.971 0.4-6 1.143-8.971 0.8-2.971 2-5.886 3.543-8.629l78-135.086c2.343-4.057 5.429-7.543 9.086-10.343s7.771-4.857 12.229-6.057h0.114c2.971-0.8 6-1.2 9.029-1.2 6.114 0 12.171 1.6 17.543 4.686h0.057l53.029 30.629c35.829-31.714 77.6-55.829 122.857-70.971v-61.086c0-4.8 0.971-9.486 2.8-13.714 2.686-6.343 7.143-11.714 12.743-15.486 2.8-1.886 5.943-3.429 9.257-4.457s6.857-1.6 10.457-1.6h155.943c4.8 0 9.486 0.971 13.714 2.8 6.343 2.686 11.714 7.143 15.486 12.743 1.886 2.8 3.429 5.943 4.457 9.257s1.6 6.857 1.6 10.457v61.029c45.314 15.2 87.086 39.314 122.857 71.029l52.971-30.629c2.8-1.6 5.714-2.8 8.686-3.6s5.943-1.143 8.971-1.143c2.971 0 5.943 0.343 8.914 1.143h0.114l0.114 0.057c4.457 1.2 8.629 3.257 12.286 6.057s6.743 6.343 9.086 10.343v0l78 135.2c1.543 2.743 2.743 5.6 3.543 8.571s1.143 6 1.143 8.971c0 6.114-1.543 12.057-4.571 17.314-1.486 2.686-3.371 5.143-5.543 7.371zM810.686 210.743l-71.486 41.257-15.486-15.543c-37.2-37.314-83.486-64.114-134.457-77.714l-21.2-5.657v-82.286h-112.114v82.343l-21.2 5.657c-50.857 13.543-97.143 40.229-134.457 77.657l-15.486 15.543-71.429-41.257-56.057 97.143 71.257 41.257-5.657 21.143c-6.8 25.314-10.229 51.429-10.229 77.657s3.429 52.343 10.229 77.771l5.657 21.2-71.314 41.143 56.057 97.143 71.429-41.257 15.486 15.543c37.314 37.371 83.6 64.114 134.514 77.771l21.2 5.657v82.343h112.171v-82.4l21.2-5.657c50.971-13.657 97.257-40.4 134.457-77.714l15.486-15.543 71.486 41.257 56.057-97.143-71.314-41.143 5.657-21.2c6.743-25.257 10.171-51.371 10.171-77.771 0-26.457-3.429-52.514-10.171-77.657l-5.657-21.143 71.371-41.257-56.171-97.143zM602.914 582.8c-12.971 8.743-27.314 15.714-42.571 20.457-15.314 4.743-31.543 7.314-48.343 7.314-22.343 0-43.829-4.571-63.314-12.8-29.2-12.343-54-32.971-71.486-58.857-8.743-12.971-15.714-27.314-20.457-42.571-4.743-15.314-7.314-31.543-7.314-48.343 0-22.343 4.571-43.829 12.8-63.314 12.343-29.2 32.971-54 58.857-71.486 12.971-8.743 27.314-15.714 42.571-20.457 15.314-4.743 31.543-7.314 48.343-7.314 22.343 0 43.829 4.571 63.314 12.8 29.2 12.343 54 32.914 71.486 58.857 8.743 12.971 15.714 27.314 20.457 42.571 4.743 15.314 7.314 31.543 7.314 48.343 0 22.343-4.571 43.829-12.8 63.314-12.343 29.2-32.914 53.943-58.857 71.486zM609.2 406.971c-8-18.914-21.371-35.029-38.229-46.4-8.4-5.714-17.714-10.171-27.543-13.257-9.886-3.086-20.4-4.743-31.371-4.743-14.629 0-28.457 2.971-41.029 8.286-18.914 8-35.029 21.371-46.4 38.229-5.714 8.4-10.171 17.714-13.257 27.543-3.086 9.886-4.743 20.4-4.743 31.371 0 14.629 2.971 28.457 8.286 41.029 8 18.914 21.371 35.029 38.229 46.4 8.4 5.714 17.714 10.171 27.543 13.257 9.886 3.086 20.4 4.743 31.371 4.743 14.629 0 28.457-2.971 41.029-8.286 18.914-8 35.029-21.371 46.4-38.229 5.714-8.4 10.171-17.714 13.257-27.543 3.086-9.886 4.743-20.4 4.743-31.371-0.057-14.629-2.971-28.457-8.286-41.029z" />
<glyph unicode="&#xe918;" glyph-name="comment-o" data-tags="comment-o" d="M947.657 172.114c22.057 9.314 40.686 24.857 53.943 44.4 6.629 9.771 11.829 20.571 15.429 32.114s5.543 23.829 5.543 36.457v402.686c0 0.057 0 0.114 0 0.114v0 0 0c0 16.8-3.429 32.971-9.657 47.6-9.314 22.057-24.8 40.686-44.343 53.886-9.771 6.629-20.571 11.829-32.114 15.429s-23.829 5.543-36.457 5.543h-775.143c0 0-0.057 0-0.114 0-16.857 0-33.029-3.429-47.714-9.657-22.057-9.314-40.686-24.8-53.886-44.343-6.629-9.771-11.829-20.571-15.429-32.114s-5.543-23.829-5.543-36.457v0-402.743c0-16.857 3.429-33.029 9.657-47.714 9.314-22.057 24.857-40.686 44.4-53.943 9.771-6.629 20.571-11.829 32.114-15.429s23.829-5.543 36.457-5.543h513.486c8.629-20.514 19.257-39.314 31.257-56.343 13.771-19.486 29.371-36.743 46.057-52 29.2-26.686 61.657-47.2 93.771-63.143 24.114-11.943 48-21.314 70.343-28.686 33.543-11.029 63.543-17.6 85.371-21.429s35.486-4.971 36.171-5.029l17.029 52.971c-36.457 21.943-66.571 51.943-88.514 87.029-16.514 26.4-28.343 55.714-34.857 86.629h4.914c16.914 0.057 33.143 3.486 47.829 9.714zM965.371 687.657v0 0 0zM830.971 44.114c-15.429 7.829-30.686 16.8-45.257 27.029-21.886 15.314-42.171 33.371-59.429 54.686-8.629 10.629-16.514 22.114-23.429 34.514s-12.971 25.657-17.886 40l-6.629 19.314h-553.6c-9.143 0-17.657 1.829-25.486 5.143-11.714 4.971-21.771 13.257-28.8 23.771-3.543 5.257-6.343 10.971-8.229 17.086s-2.914 12.629-2.914 19.486v402.686c0 9.086 1.829 17.657 5.143 25.486 4.971 11.714 13.314 21.771 23.771 28.8 5.2 3.543 10.971 6.343 17.086 8.229s12.629 2.914 19.486 2.914h775.143c9.086 0 17.657-1.829 25.486-5.143 11.714-4.971 21.771-13.314 28.8-23.771 3.543-5.257 6.343-10.971 8.229-17.086s2.914-12.629 2.914-19.486c0-0.057 0-0.057 0-0.057v-402.629c0-9.143-1.829-17.657-5.143-25.486-4.971-11.714-13.257-21.771-23.771-28.8-5.257-3.543-10.971-6.343-17.086-8.229s-12.629-2.914-19.486-2.914h-69.143l2.743-31.086c4.571-51.486 21.257-100.343 47.886-142.971 6.686-10.686 13.943-20.914 21.829-30.743-3.657 1.143-7.371 2.4-11.143 3.657-19.714 6.686-40.571 15.143-61.086 25.6z" />
<glyph unicode="&#xe919;" glyph-name="comments" data-tags="comments" d="M1012.057 745.657v0c0 12.8-2.629 25.143-7.371 36.286-7.143 16.857-18.971 31.086-33.886 41.2-7.486 5.029-15.714 9.086-24.571 11.829-8.8 2.743-18.229 4.229-27.829 4.229h-486.914c0 0 0 0-0.057 0-12.857 0-25.257-2.629-36.457-7.371-16.857-7.143-31.086-18.971-41.2-33.886-5.029-7.486-9.086-15.714-11.829-24.571-2.743-8.8-4.229-18.229-4.229-27.829v-278.914c0-12.857 2.629-25.257 7.371-36.457 7.143-16.857 18.971-31.086 33.886-41.2 7.486-5.029 15.714-9.029 24.571-11.829 8.8-2.743 18.229-4.229 27.829-4.229v0h300c5.771-12.743 12.629-24.514 20.229-35.314 9.943-14.057 21.143-26.457 33.143-37.429 20.971-19.143 44.171-33.771 66.971-45.086 17.143-8.514 34.057-15.143 49.886-20.343 23.714-7.829 44.914-12.457 60.343-15.143 15.429-2.743 25.143-3.543 25.886-3.6l17.029 52.971c-24.057 14.457-43.886 34.229-58.4 57.429-9.029 14.457-16 30.229-20.514 46.857 10.114 0.8 19.829 3.257 28.8 7.086 16.857 7.143 31.086 18.971 41.2 33.886 5.029 7.486 9.029 15.714 11.829 24.571 2.743 8.8 4.229 18.229 4.229 27.829v278.857c0.057 0.114 0.057 0.171 0.057 0.171zM952.057 452.4c-1.371-3.257-3.257-6.286-5.486-9.029-3.371-4.057-7.6-7.429-12.4-9.714-2.4-1.143-4.914-2.057-7.543-2.629-2.629-0.629-5.371-0.914-8.286-0.914h-57.486l2.743-31.086c3.257-36.629 15.029-71.371 33.829-101.771-7.6 3.086-15.257 6.514-22.8 10.4-10.343 5.257-20.571 11.257-30.286 18.057-14.571 10.229-28 22.171-39.371 36.229-5.657 7.029-10.857 14.514-15.371 22.629-4.571 8.114-8.514 16.8-11.714 26.229l-6.629 19.314h-339.771c-5.143 0-9.886 1.029-14.229 2.857-3.257 1.371-6.286 3.257-9.029 5.486-4.057 3.371-7.429 7.6-9.714 12.4-1.143 2.4-2.057 4.914-2.629 7.543-0.629 2.629-0.914 5.371-0.914 8.286v278.914c0 5.143 1.029 9.829 2.857 14.229 1.371 3.257 3.257 6.286 5.486 9.029 3.371 4.057 7.6 7.429 12.4 9.714 2.4 1.143 4.914 2.057 7.543 2.629 2.629 0.629 5.371 0.914 8.286 0.914h486.971c5.143 0 9.829-1.029 14.229-2.857 3.257-1.371 6.286-3.257 9.029-5.486 4.057-3.371 7.429-7.6 9.714-12.4 1.143-2.4 2.057-4.914 2.629-7.543 0.629-2.629 0.914-5.371 0.914-8.286 0 0 0 0 0-0.057v-278.857c-0.114-5.143-1.143-9.886-2.971-14.229zM1012.057 745.6v0 0 0zM367.371 349.257c-6.571 0-12.686 1.314-18.286 3.714-4.229 1.771-8.114 4.171-11.6 7.029-5.257 4.343-9.543 9.771-12.514 15.943-1.486 3.086-2.629 6.343-3.429 9.714-0.8 3.429-1.2 6.971-1.2 10.629v210.857h-216.229c-12.857 0-25.257-2.629-36.457-7.371-16.857-7.143-31.086-18.971-41.2-33.886-5.029-7.486-9.029-15.714-11.771-24.571-2.743-8.8-4.229-18.229-4.229-27.829 0 0 0-0.057 0-0.057v0.057-278.857c0-12.857 2.629-25.257 7.371-36.457 7.143-16.857 18.971-31.086 33.886-41.2 7.486-5.029 15.714-9.029 24.571-11.829 6.457-2 13.2-3.314 20.171-3.886-4.514-16.629-11.486-32.4-20.514-46.857-14.457-23.143-34.343-42.914-58.4-57.429l17.029-52.971c0.857 0.057 13.829 1.143 33.771 5.029 14.971 2.914 33.943 7.486 54.743 14.457 15.6 5.257 32.229 11.829 49.029 20.286 12.571 6.286 25.257 13.657 37.6 22.171 18.514 12.8 36.286 28.343 51.714 47.314 7.714 9.486 14.857 19.771 21.143 30.914 3.029 5.371 5.886 10.971 8.514 16.743h300c12.857 0 25.257 2.629 36.457 7.371 16.857 7.143 31.086 18.971 41.2 33.886 5.029 7.486 9.029 15.714 11.829 24.571 2.743 8.8 4.229 18.229 4.229 27.829v114.686h-317.429zM627.6 234.571c0-5.143-1.029-9.886-2.857-14.229-1.371-3.257-3.257-6.286-5.486-9.029-3.371-4.057-7.6-7.429-12.4-9.714-2.4-1.143-4.914-2.057-7.543-2.629-2.629-0.629-5.371-0.914-8.286-0.914v0h-339.771l-6.629-19.314c-5.143-15.086-12.171-28.286-20.514-40.229-7.314-10.4-15.771-19.771-24.971-28.171-16.114-14.743-34.8-26.686-53.829-36.114-6.743-3.371-13.543-6.4-20.286-9.143 18.8 30.4 30.571 65.2 33.829 101.829l2.743 31.086h-57.486c-5.143 0-9.886 1.029-14.229 2.857-3.257 1.371-6.286 3.257-9.029 5.486-4.057 3.371-7.429 7.6-9.714 12.4-1.143 2.4-2.057 4.914-2.629 7.543-0.629 2.629-0.914 5.371-0.914 8.286v278.914c0 5.143 1.029 9.829 2.857 14.229 1.371 3.257 3.257 6.286 5.486 9.029 3.371 4.057 7.6 7.429 12.4 9.714 2.4 1.143 4.914 2.057 7.543 2.629 2.629 0.629 5.371 0.914 8.286 0.914v0h159.029v-153.714c0-14.286 2.914-28.057 8.171-40.571 7.943-18.743 21.086-34.571 37.714-45.829 8.286-5.6 17.486-10.057 27.314-13.143 9.829-3.029 20.229-4.686 30.971-4.686h260.286l-0.057-57.486z" />
<glyph unicode="&#xe91a;" glyph-name="desktop" data-tags="desktop" horiz-adv-x="1170" d="M34.857 957.143v-780.914h520.686v-121.829h-492.114v-57.143h1041.371v57.143h-492.114v121.829h520.686v780.914h-1098.514zM92 900h984.229v-666.629h-984.229v666.629z" />
<glyph unicode="&#xe91b;" glyph-name="download" data-tags="download" d="M755.543 797.486v-57.143h161.029v-600.971h-809.143v600.971h189.029v57.143h-246.171v-715.257h923.429v715.257zM688.686 461.029l-40.4 40.4-107.714-107.714v561.6h-57.143v-559.771l-107.714 107.714-40.4-40.4 177.6-177.6z" />
<glyph unicode="&#xe91c;" glyph-name="edit" data-tags="edit" d="M892 948.686h-40.4l-499.371-499.371v-40.4l122.686-122.686h40.4l499.371 499.371v40.4l-122.686 122.686zM495.143 346.8l-82.286 82.286 458.971 458.971 82.286-82.286-458.971-458.971zM292.4 388.171l-65.771-194.286 37.2-35.886 188.457 71.6 10.057 46.914-122.686 122.686-47.257-11.029zM300.171 232.914l31.6 93.371 58.971-58.971-90.571-34.4zM146.743 727.886h335.371v-57.143h-335.371v57.143zM146.743 586.629h196.571v-57.143h-196.571v57.143zM897.086 540.343v-325.2c0-9.086-1.829-17.543-5.086-25.314-4.914-11.657-13.2-21.657-23.6-28.686-5.2-3.486-10.914-6.286-17.029-8.171s-12.571-2.914-19.371-2.914h-25.943l-26.171-40c11.314-26 26.057-50.4 43.714-72.514-24.457 7.771-51.029 18.171-76.971 31.829-16.857 8.857-33.429 19.143-49.029 30.914-15.657 11.771-30.286 25.086-43.429 40.057l-21.486 9.714h-501.257c-9.086 0-17.543 1.829-25.314 5.086-11.657 4.914-21.657 13.2-28.686 23.6-3.486 5.2-6.286 10.914-8.171 17.029s-2.914 12.571-2.914 19.371v544.057c0 9.086 1.829 17.543 5.086 25.314 4.914 11.657 13.2 21.657 23.6 28.686 5.2 3.486 10.914 6.286 17.029 8.171s12.571 2.914 19.371 2.914v0 0 0h546.286v57.143h-546.114c0 0-0.057 0-0.057 0-0.057 0-0.114 0-0.114 0v0 0c-16.8 0-32.914-3.429-47.543-9.6-21.943-9.314-40.571-24.743-53.771-44.229-6.571-9.771-11.829-20.514-15.371-32-3.6-11.486-5.486-23.714-5.486-36.343v0-544.114c0-16.8 3.429-32.971 9.6-47.6 9.314-22 24.743-40.571 44.286-53.771 9.771-6.571 20.514-11.829 32-15.371 11.486-3.6 23.771-5.486 36.343-5.486h488.629c11.886-12.457 24.457-23.771 37.543-34 28.686-22.457 59.429-39.771 89.371-53.257 44.971-20.229 88.114-31.886 120.286-38.571s53.371-8.457 54.343-8.514l17.029 52.971c-23.886 14.4-45.086 32.229-62.971 52.743-8.343 9.6-16 19.714-22.914 30.4 9.314 1.6 18.343 4.229 26.857 7.829 22 9.314 40.571 24.743 53.771 44.286 6.571 9.771 11.829 20.514 15.371 32 3.6 11.486 5.486 23.771 5.486 36.343v353.771h-57.143l-0.057-28.571z" />
<glyph unicode="&#xe91d;" glyph-name="ellipsis-v" data-tags="ellipsis-v" d="M402.286 886.857h219.429v-219.429h-219.429v219.429zM402.286 594.286h219.429v-219.429h-219.429v219.429zM402.286 301.714h219.429v-219.429h-219.429v219.429z" />
<glyph unicode="&#xe91e;" glyph-name="envelope" data-tags="envelope" d="M11.371 724.571l483.143-423.886c10.743-9.429 26.743-9.486 37.543-0.114l447.771 387.943 37.429 37.257c8.171 8.171 10.686 20.457 6.286 31.143s-14.857 17.657-26.4 17.657h-966.914c-11.886 0-22.571-7.371-26.743-18.514-4.229-11.029-1.086-23.6 7.886-31.486zM715.371 717.486h210.686l-412.629-357.371-407.314 357.371h609.257zM968.571 677.2v-508.514l-246.629 246.629-40.4-40.4 246.629-246.629h-828.971l249.943 249.943-40.4 40.4-249.943-249.943v508.514h-57.143v-577.543c0-7.543 3.029-14.857 8.343-20.229s12.686-8.343 20.229-8.343h966.914c7.543 0 14.857 3.029 20.229 8.343 5.314 5.314 8.343 12.686 8.343 20.229v577.543h-57.143z" />
<glyph unicode="&#xe91f;" glyph-name="external-link" data-tags="external-link" d="M489.257 918h-410.629c-7.543 0-14.857-3.029-20.229-8.343-5.314-5.314-8.343-12.686-8.343-20.229v-870.629c0-7.543 3.029-14.857 8.343-20.229s12.686-8.343 20.229-8.343h870.629c7.543 0 14.857 3.029 20.229 8.343 5.314 5.314 8.343 12.686 8.343 20.229v237.257c0 15.771-12.8 28.571-28.571 28.571s-28.571-12.8-28.571-28.571v-208.686h-813.486v813.486h382.057c15.771 0 28.571 12.8 28.571 28.571s-12.8 28.571-28.571 28.571v0zM972.314 587.497v329.777h-332.549v-57.143h236.206l-382.486-392.183 40.914-39.897 380.771 390.434v-230.989z" />
<glyph unicode="&#xe920;" glyph-name="file-o" data-tags="file-o" d="M647.829 958.057h-566.114v-1020.514h862.4v722.514l-296.286 298zM847.886 675.829h-183.371v184.4l183.371-184.4zM138.857 900.914h468.514v-282.229h279.6v-624h-748.114v906.229z" />
<glyph unicode="&#xe921;" glyph-name="fullscreen" data-tags="fullscreen" d="M972.314 587.497v329.777h-332.549v-57.143h236.206l-266.331-273.457 40.914-39.897 264.617 271.709v-230.989zM50.057 320.006v-329.777h332.549v57.143h-236.206l257.263 266.96-40.914 39.897-255.549-265.211v230.989zM644.931-7.377h329.777v332.549h-57.143v-236.206l-273.457 266.331-39.897-40.914 271.709-264.617h-230.989zM377.44 914.88h-329.777v-332.549h57.143v236.206l266.96-257.263 39.897 40.914-265.211 255.549h230.989z" />
<glyph unicode="&#xe922;" glyph-name="home" data-tags="home" d="M930.229 509.12l-161.469 158.84v136.594h-57.143v-80.383l-203.103 199.806-421.543-421.543 40.4-40.4 12.171 12.171v-497.709h740.994v501.36l9.64-9.48 40.051 40.743zM823.389 33.64h-257.646v230.154h-114.286v-230.154h-254.771v497.709l312.171 312.171 314.531-309.446v-500.434z" />
<glyph unicode="&#xe923;" glyph-name="info-circle" data-tags="info-circle" d="M913.086 617.314c-33.086 78.171-88.229 144.571-157.714 191.486-34.743 23.486-73.029 42.057-114 54.8-40.914 12.743-84.4 19.6-129.429 19.6-60 0-117.371-12.171-169.429-34.229-78.171-33.086-144.571-88.229-191.486-157.714-23.486-34.743-42.057-73.029-54.8-114-12.743-40.914-19.6-84.4-19.6-129.429 0-60 12.171-117.371 34.229-169.429 33.086-78.171 88.229-144.571 157.714-191.486 34.743-23.486 73.029-42.057 114-54.8 40.914-12.743 84.4-19.6 129.429-19.6 60 0 117.371 12.171 169.429 34.229 78.171 33.086 144.571 88.229 191.486 157.714 23.486 34.743 42.057 73.029 54.8 114 12.743 40.914 19.6 84.4 19.6 129.429 0 60-12.171 117.314-34.229 169.429zM860.457 300.686c-28.686-67.829-76.686-125.657-137.029-166.4-30.171-20.4-63.429-36.514-98.971-47.6-35.486-11.029-73.257-16.971-112.457-16.971-52.286 0-101.943 10.571-147.2 29.714-67.829 28.686-125.657 76.686-166.4 137.029-20.4 30.171-36.514 63.429-47.6 98.971-11.029 35.486-16.971 73.257-16.971 112.457 0 52.286 10.571 101.943 29.714 147.2 28.686 67.829 76.686 125.6 137.029 166.4 30.171 20.4 63.429 36.514 98.971 47.6 35.486 11.029 73.257 16.971 112.457 16.971 52.286 0 101.943-10.571 147.2-29.714 67.829-28.686 125.657-76.686 166.4-137.029 20.4-30.171 36.514-63.429 47.6-98.971 11.029-35.486 16.971-73.257 16.971-112.457 0-52.343-10.571-102-29.714-147.2zM483.429 538.057h57.143v-384.914h-57.143v384.914zM483.429 749.943h57.143v-123.029h-57.143v123.029z" />
<glyph unicode="&#xe924;" glyph-name="key" data-tags="key" d="M921.257 72.971l52.971 52.971c11.143 11.143 11.143 29.257 0 40.4s-29.257 11.143-40.4 0l-52.971-52.971-44.343 44.343 135.543 135.543c11.143 11.143 11.143 29.257 0 40.4s-29.257 11.143-40.4 0l-135.543-135.543-360.743 360.743c24 28.229 109.886 98.629 120.286 134.8 19.657 47.886 8.4 104.971-28.743 141.657-56.971 58.914-104.171 115.029-194.457 81.543-32.343-4.171-232.971-223.429-260.514-246-37.143-36.686-48.4-93.714-28.743-141.657 9.714-32.4 59.429-71.657 81.543-96.114 36.686-37.143 93.714-48.4 141.657-28.743 35.429 9.886 101.2 90.343 128.571 114 114.229-114.171 429.771-429.771 538.857-538.857 11.143-11.143 29.257-11.143 40.4 0s11.143 29.257 0 40.4c0 0.057-52.971 53.086-52.971 53.086zM375.829 580.114c-18.343-15.314-108.743-116.743-130.914-122.743-17.657-7.2-37.771-7.2-55.429 0-20.629 5.314-61.143 55.714-77.2 69.029-20.971 20.686-27.2 52.8-16.171 79.771-6.457 9.429 225.657 230.971 233.429 241.6 20.686 20.971 52.8 27.2 79.771 16.171 20.571-5.2 61.2-55.771 77.2-69.029 20.971-20.686 27.2-52.8 16.171-79.771-3.086-18.743-113.886-119.371-126.857-135.029z" />
<glyph unicode="&#xe925;" glyph-name="language" data-tags="language" d="M57.029 596.286h400.343c2.857-26.8 9.6-52.514 19.714-76.457 20.514-48.457 54.686-89.6 97.714-118.686 21.543-14.514 45.257-26.057 70.629-33.943s52.343-12.114 80.229-12.114c37.2 0 72.743 7.543 105.029 21.2 48.457 20.514 89.6 54.686 118.686 97.714 14.514 21.543 26.057 45.257 33.943 70.629s12.114 52.343 12.114 80.229c0 37.2-7.543 72.743-21.2 105.029-20.514 48.457-54.686 89.6-97.714 118.686-21.543 14.514-45.257 26.057-70.629 33.943s-52.343 12.114-80.229 12.114c-37.2 0-72.743-7.543-105.029-21.2-48.457-20.514-89.6-54.686-118.686-97.714-14.514-21.543-26.057-45.257-33.943-70.629-5.143-16.571-8.743-33.886-10.629-51.657h-400.343c-15.771 0-28.571-12.8-28.571-28.571s12.8-28.571 28.571-28.571zM677.314 590c-10.457 13.429-18.914 26.629-25.829 38.857-9.2 16.343-15.543 31.143-19.829 42.8-0.514 1.314-0.971 2.629-1.371 3.886h-28v57.143h93.657v34.229h57.143v-34.229h93.657v-57.143h-28.114c-1.943-4.629-4.229-9.886-6.971-15.657-9.771-20.743-24.914-48.286-47.029-76.171-0.229-0.286-0.514-0.629-0.743-0.914 10.8-8.743 22.857-17.143 36.514-24.914 14.743-8.4 31.257-16.114 49.829-22.686l-19.029-53.886c-36.743 12.971-67.486 30.057-92.857 48.971-4.8 3.6-9.371 7.2-13.829 10.914-4.457-3.943-9.086-7.829-13.886-11.6-12.286-9.6-25.714-18.571-40.4-26.514-16.8-9.029-35.2-16.686-55.257-22.343l-15.429 55.029c13.086 3.657 25.257 8.457 36.629 14.057s21.886 12.057 31.657 19.086c5.657 4.057 11.029 8.343 16.171 12.8-2.286 2.743-4.514 5.543-6.686 8.286zM723.429 623.771c6.743 8.857 12.743 17.657 17.943 26.171 5.6 9.086 10.4 17.771 14.343 25.6h-63.943c4.171-9.2 9.657-19.657 16.686-30.686 4.4-6.857 9.314-13.943 14.971-21.086zM293.771 396c-13.143 0-25.771-2.686-37.257-7.543-17.2-7.257-31.771-19.371-42.057-34.629-5.143-7.6-9.257-16.057-12.057-25.086s-4.286-18.571-4.286-28.457c0-13.143 2.686-25.771 7.543-37.257 7.257-17.2 19.371-31.771 34.629-42.057 7.6-5.143 16.057-9.257 25.086-12.057 7.657-2.4 15.714-3.829 24-4.171-4.114-6.571-8.686-13.2-13.543-19.371-3.657-4.629-7.371-8.971-11.143-12.743-2.8-2.857-5.6-5.371-8.286-7.486-2-1.6-4-2.971-5.829-4.114-2.743-1.714-5.257-2.857-7.314-3.486-2.114-0.686-3.771-0.914-5.257-0.914 0 0 0 0 0 0-4.057 0-7.086 0.457-9.371 1.086-2 0.514-3.429 1.143-4.571 1.771-1.029 0.571-1.829 1.143-2.514 1.829-0.629 0.571-1.2 1.2-1.771 1.886-0.971 1.2-1.829 2.686-2.514 4.229-0.514 1.2-0.971 2.4-1.314 3.6-0.514 1.771-0.8 3.371-0.914 4.343-0.057 0.457-0.114 0.8-0.114 0.857v0 0.114l-25.943-1.314 26 0.743-57.143-1.6c0.057-1.257 0.229-5.771 1.543-12.286 1.029-4.914 2.686-10.914 5.657-17.6 2.229-4.971 5.143-10.286 9.143-15.543 2.971-3.943 6.571-7.829 10.857-11.429 3.2-2.686 6.743-5.2 10.629-7.429 5.829-3.314 12.4-6 19.486-7.771s14.743-2.686 22.8-2.686v0c0 0 0 0 0.057 0 0 0 0 0 0 0v0c0 0 0 0 0 0s0 0 0 0 0 0 0 0 0 0 0 0c0.114 0 0.343 0 0.743 0v0c5.429 0.057 10.743 0.743 15.829 1.943 4.971 1.143 9.657 2.743 14.114 4.686 8.343 3.657 15.771 8.4 22.514 13.657 5.943 4.629 11.371 9.657 16.4 14.971 8.8 9.257 16.514 19.2 23.257 29.029 4 5.829 7.657 11.543 10.914 17.029v-76.171h57.143v291.429h-105.143zM341.6 261.829h-47.829c-5.371 0-10.4 1.086-14.971 3.029-3.429 1.429-6.629 3.429-9.486 5.771-4.286 3.543-7.829 8-10.229 13.029-1.2 2.514-2.171 5.2-2.8 7.943-0.629 2.8-0.971 5.714-0.971 8.743 0 5.371 1.086 10.4 3.029 14.971 1.429 3.429 3.429 6.629 5.771 9.486 3.543 4.286 8 7.829 13.029 10.229 2.514 1.2 5.2 2.171 7.943 2.8 2.8 0.629 5.714 0.971 8.743 0.971h47.829v-76.971zM966.971 265.314h-395.829c-2.8 26.8-9.6 52.514-19.714 76.457-20.514 48.457-54.686 89.6-97.714 118.686-21.543 14.514-45.257 26.057-70.629 33.943s-52.343 12.114-80.229 12.114c-37.2 0-72.743-7.543-105.029-21.2-48.457-20.514-89.6-54.686-118.686-97.714-14.514-21.543-26.057-45.257-33.943-70.629s-12.114-52.343-12.114-80.229c0-37.2 7.543-72.743 21.2-105.029 20.514-48.457 54.686-89.6 97.714-118.686 21.543-14.514 45.257-26.057 70.629-33.943s52.343-12.114 80.229-12.114c37.2 0 72.743 7.543 105.029 21.2 48.457 20.514 89.6 54.686 118.686 97.714 14.514 21.543 26.057 45.257 33.943 70.629 5.143 16.571 8.743 33.886 10.629 51.657h395.829c15.771 0 28.571 12.8 28.571 28.571s-12.8 28.571-28.571 28.571zM498.8 153.943c-16.114-38.114-43.143-70.629-77.086-93.6-16.971-11.486-35.657-20.514-55.657-26.743-19.943-6.229-41.143-9.543-63.257-9.543-29.429 0-57.314 5.943-82.743 16.686-38.114 16.114-70.629 43.143-93.6 77.086-11.486 16.971-20.514 35.657-26.743 55.657-6.229 19.943-9.543 41.143-9.543 63.257 0 29.429 5.943 57.314 16.686 82.743 16.114 38.114 43.143 70.629 77.086 93.6 16.971 11.486 35.657 20.514 55.657 26.743 19.943 6.229 41.143 9.543 63.257 9.543 29.429 0 57.314-5.943 82.743-16.686 38.114-16.114 70.629-43.143 93.6-77.086 11.486-16.971 20.514-35.657 26.743-55.657 6.229-19.943 9.543-41.143 9.543-63.257 0-29.429-5.943-57.314-16.686-82.743z" />
<glyph unicode="&#xe926;" glyph-name="mail-forward" data-tags="mail-forward" d="M672.229 949.429l-40.4-40.4 283.257-283.314h-690.114c-24.229 0-47.486-4.914-68.571-13.829-31.657-13.371-58.514-35.714-77.486-63.771-9.486-14.057-17.029-29.543-22.171-46.114s-7.943-34.171-7.943-52.4v-446.743h57.143v446.686c0 16.514 3.314 32.114 9.314 46.343 9.029 21.314 24.114 39.543 43.143 52.4 9.486 6.4 19.943 11.486 31.143 14.971 11.143 3.486 23.029 5.371 35.429 5.371h685.943l-283.314-283.314 40.4-40.4 354.343 354.343-350.114 350.171z" />
<glyph unicode="&#xe927;" glyph-name="map-marker" data-tags="map-marker" d="M809.086 719.886c-97.886 234.4-423.029 265.486-563.6 54.686-59.829-86-71.714-206.971-30.686-302.971 15.486-37.429 37.771-71.257 65.371-100 32.057-39.943 61.029-83.714 86.343-126.857 55.086-96 87.486-169.029 118.914-254.571v0 0 0c8.4-25.429 45.543-25.486 54-0.114v0c0 0 0 0 0 0v0c25.829 82.971 134.4 303.314 213.371 390.286 5.371 6.057 11.2 12.971 15.829 19.371v0c69.371 87.771 85.2 218 40.457 320.171zM763.314 509.429c-9.886-29.2-24.857-56.229-43.771-79.943-86.057-98.514-162.514-244.114-206.971-351.371-46.743 111.543-109.086 231.029-188.629 330.229-23.714 24.514-43.257 53.086-56.343 85.086-72.743 171.257 58.514 368 244.857 365.943 179.543 1.886 309.943-181.429 250.857-349.943zM609.429 738.286c-94.229 65.2-229.771 17.371-262.571-92.229-35.543-109.371 50.629-226.514 165.6-224.914 171.086 1.543 237.429 220.8 96.971 317.143zM619.543 549.314c-35.371-84.629-152.743-95.886-203.486-19.714-52 76.286 4 181.714 96.4 181.2 82.4 0.8 139.714-86.4 107.086-161.486z" />
<glyph unicode="&#xe928;" glyph-name="microphone-slash" data-tags="microphone-slash" d="M777.2 675.371v-185.771c0-36.857-7.429-71.771-20.914-103.6-20.171-47.714-54-88.457-96.457-117.143-21.257-14.343-44.686-25.714-69.657-33.486s-51.543-11.943-79.2-11.943c-36.857 0-71.771 7.429-103.6 20.914-14 5.943-27.371 13.029-40.057 21.143l-41.2-41.2c1.371-0.971 2.743-1.886 4.114-2.8 25.771-17.429 54.286-31.257 84.686-40.686 21.657-6.743 44.286-11.257 67.6-13.257v-93.257h-190.057v-57.143h439.257v57.143h-192.114v93.257c34.229 2.971 66.971 11.314 97.314 24.171 58.057 24.571 107.371 65.543 142.229 117.143 17.429 25.771 31.257 54.286 40.686 84.686s14.571 62.743 14.514 96.171v188h-54.8l-2.343-2.343zM256.743 410.457c-7.771 24.971-11.943 51.543-11.943 79.2v188.057h-57.143v-188.114c0-44.571 9.029-87.2 25.429-125.886 0.971-2.343 2-4.629 3.029-6.971l43.886 43.886c-1.143 3.257-2.229 6.514-3.257 9.829zM510.914 960c-100.457 0-181.886-81.429-181.886-181.886v-292.571c0-5.143 0.229-10.229 0.629-15.257l356.514 356.514c-21.257 76.8-91.657 133.2-175.257 133.2zM692.743 485.6v105.314l-266.4-266.4c25.257-13.314 54.057-20.8 84.571-20.8 100.457 0 181.829 81.429 181.829 181.886zM911.943 890.914v0l-40.4 40.4-763.771-763.714 40.4-40.4z" />
<glyph unicode="&#xe929;" glyph-name="microphone" data-tags="microphone" d="M777.2 677.714v0-188.114c0-36.857-7.429-71.771-20.914-103.6-20.171-47.714-54-88.457-96.457-117.143-21.257-14.343-44.686-25.714-69.657-33.486s-51.543-11.943-79.2-11.943v0c-36.857 0-71.771 7.429-103.6 20.914-47.714 20.171-88.457 54-117.143 96.457-14.343 21.257-25.714 44.686-33.486 69.657s-11.943 51.543-11.943 79.2v188.057h-57.143v-188.114c0-44.571 9.029-87.2 25.429-125.886 24.571-58.057 65.543-107.371 117.143-142.229 25.771-17.429 54.286-31.257 84.686-40.686 21.657-6.743 44.286-11.257 67.6-13.257v-93.257h-190.057v-57.143h439.257v57.143h-192.114v93.257c34.229 2.971 66.971 11.314 97.314 24.171 58.057 24.571 107.371 65.543 142.229 117.143 17.429 25.771 31.257 54.286 40.686 84.686s14.571 62.743 14.514 96.171v188h-57.143zM510.914 303.714v0c-100.457 0-181.886 81.429-181.886 181.829v292.571c0 100.457 81.429 181.886 181.886 181.886v0c100.457 0 181.829-81.429 181.829-181.829v-292.571c0-100.457-81.371-181.886-181.829-181.886z" />
<glyph unicode="&#xe92a;" glyph-name="music" data-tags="music" d="M408.857 94.686v0 0zM957.714 926.457l-606-200.914v-509.2c-4 3.314-8.171 6.457-12.514 9.371-12.629 8.514-26.514 15.257-41.371 19.886s-30.686 7.086-46.971 7.086c-21.714 0-42.571-4.4-61.486-12.4-28.4-12-52.457-32-69.486-57.2-8.514-12.629-15.257-26.514-19.886-41.371s-7.086-30.686-7.086-46.971c0-21.714 4.4-42.571 12.4-61.486 12-28.4 32-52.457 57.2-69.486 12.629-8.514 26.514-15.257 41.371-19.886s30.686-7.086 46.971-7.086v0c21.714 0 42.571 4.4 61.486 12.4 28.4 12 52.457 32 69.486 57.2 8.514 12.629 15.257 26.514 19.886 41.371s7.086 30.686 7.086 46.971v0 0 326.686l491.771 162.971v-261.543c-4 3.314-8.171 6.457-12.514 9.371-12.629 8.514-26.514 15.257-41.371 19.886s-30.686 7.086-46.971 7.086c-21.714 0-42.571-4.4-61.486-12.4-28.4-12-52.457-32-69.486-57.2-8.514-12.629-15.257-26.514-19.886-41.371s-7.086-30.686-7.086-46.971c0-21.714 4.4-42.571 12.4-61.486 12-28.4 32-52.457 57.2-69.486 12.629-8.514 26.514-15.257 41.371-19.886s30.686-7.086 46.971-7.086c21.714 0 42.571 4.4 61.486 12.4 28.4 12 52.457 32 69.486 57.2 8.514 12.629 15.257 26.514 19.886 41.371s7.086 30.686 7.086 46.971c0 2.629-0.057 5.2-0.171 7.829l0.229 717.371zM343.829 55.429c-7.657-18.057-20.457-33.543-36.571-44.4-8.057-5.429-16.914-9.714-26.343-12.686-9.429-2.914-19.486-4.514-30-4.514-14 0-27.2 2.8-39.257 7.886-18.057 7.657-33.543 20.457-44.4 36.571-5.429 8.057-9.714 16.914-12.686 26.343-2.914 9.429-4.514 19.486-4.514 30 0 14 2.8 27.2 7.886 39.257 7.657 18.057 20.457 33.543 36.571 44.4 8.057 5.429 16.914 9.714 26.343 12.686 9.429 2.914 19.486 4.514 30 4.514 14 0 27.2-2.8 39.257-7.886 18.057-7.657 33.543-20.457 44.4-36.571 5.429-8.057 9.714-16.914 12.686-26.343 2.914-9.429 4.514-19.486 4.514-30 0-14-2.8-27.2-7.886-39.257zM408.857 481.6v202.686l491.714 162.971v-202.629l-491.714-163.029zM892.686 162c-7.657-18.057-20.457-33.543-36.571-44.4-8.057-5.429-16.914-9.714-26.343-12.686-9.429-2.914-19.486-4.514-30-4.514-14 0-27.2 2.8-39.257 7.886-18.057 7.657-33.543 20.457-44.4 36.571-5.429 8.057-9.714 16.914-12.686 26.343-2.914 9.429-4.514 19.486-4.514 30 0 14 2.8 27.2 7.886 39.257 7.657 18.057 20.457 33.543 36.571 44.4 8.057 5.429 16.914 9.714 26.343 12.686 9.429 2.914 19.486 4.514 30 4.514 14 0 27.2-2.8 39.257-7.886 18.057-7.657 33.543-20.457 44.4-36.571 5.429-8.057 9.714-16.914 12.686-26.343 2.914-9.429 4.514-19.486 4.514-30 0-14-2.8-27.2-7.886-39.257z" />
<glyph unicode="&#xe92b;" glyph-name="paper-plane" data-tags="paper-plane" d="M1022.514 955.6l-1023.371-586.171 242.971-114.229 54.686-294.343 141.2 200.171 277.314-130.571 307.2 925.143zM331.143 101.657l-30.457 163.886 249.257 169.314-218.8-333.2zM473.314 210.114l290.571 442-501.543-340.686-134.457 63.2 789.143 452-237.029-713.829-206.686 97.314z" />
<glyph unicode="&#xe92c;" glyph-name="paperclip" data-tags="paperclip" d="M933.257 564.286c15.371 37.886 19.143 79.2 11.486 118.8-3.829 19.771-10.571 39.2-20.171 57.429-9.6 18.286-22.057 35.429-37.371 50.686-20.4 20.4-44.057 35.771-69.314 46-37.886 15.371-79.2 19.143-118.8 11.486-19.771-3.829-39.2-10.571-57.429-20.171-18.286-9.6-35.429-22.057-50.686-37.371l-468.286-468.286c-1.143-1.143-2.229-2.4-3.143-3.714-14.057-15.029-24.8-32.114-32.171-50.229-12-29.6-14.971-61.943-9.029-92.914 2.971-15.486 8.229-30.629 15.771-44.914 7.486-14.286 17.257-27.714 29.257-39.657 15.943-15.943 34.457-28 54.229-36 29.6-12 61.943-14.971 92.914-9.029 15.486 2.971 30.629 8.229 44.914 15.771 14.286 7.486 27.714 17.257 39.657 29.257l345.257 345.257c11.371 11.371 20 24.686 25.771 38.8 8.571 21.2 10.743 44.286 6.457 66.457-2.171 11.086-5.886 21.943-11.257 32.171s-12.343 19.829-20.914 28.4c-11.371 11.371-24.686 20-38.8 25.771-21.2 8.571-44.286 10.743-66.457 6.457-11.086-2.171-21.943-5.886-32.171-11.257s-19.829-12.343-28.4-20.914l-240.114-240.114 40.4-40.4 240.114 240.114c5.943 5.943 12.629 10.286 19.886 13.2 10.8 4.4 22.743 5.486 34.114 3.314 5.714-1.086 11.2-3.029 16.457-5.771 5.2-2.743 10.114-6.286 14.571-10.743 5.943-5.943 10.286-12.629 13.2-19.886 4.4-10.8 5.486-22.743 3.314-34.114-1.086-5.714-3.029-11.2-5.771-16.457-2.743-5.2-6.286-10.114-10.743-14.571l-345.257-345.257c-10.457-10.457-22.457-18.229-35.314-23.429-19.2-7.829-40.4-9.771-60.571-5.829-10.114 1.943-19.943 5.371-29.2 10.229s-18 11.2-25.829 19.029c-10.457 10.457-18.229 22.457-23.429 35.257-7.829 19.2-9.771 40.4-5.829 60.571 1.943 10.114 5.371 19.943 10.229 29.2s11.2 18 19.029 25.829c1.029 1.029 1.886 2.057 2.743 3.143l464.857 464.857c14.914 14.914 32.057 26.057 50.4 33.486 27.486 11.143 57.657 13.943 86.457 8.343 14.4-2.8 28.457-7.657 41.714-14.629s25.657-16 36.857-27.2c14.914-14.914 26.057-32.057 33.486-50.4 11.143-27.486 13.943-57.657 8.343-86.457-2.8-14.4-7.657-28.457-14.629-41.714s-16-25.657-27.2-36.857l-363.6-363.6 40.4-40.4 363.6 363.6c20.4 20.457 35.771 44.114 46 69.371z" />
<glyph unicode="&#xe92d;" glyph-name="pause" data-tags="pause" horiz-adv-x="896" d="M92 898h200v-896h-200v896zM604 898h200v-896h-200v896z" />
<glyph unicode="&#xe92e;" glyph-name="phone-slash" data-tags="phone-slash" d="M968.4 252.571c-6.171 7.2-14.057 13.143-23.143 17.257l-149.429 67.029c-8.686 3.886-18 5.829-27.257 5.829-7.886 0-15.714-1.371-23.086-4.114-7.429-2.743-14.4-6.857-20.571-12.171l-70.457-61.2c-45.543 23.829-84.286 48.4-117.314 72.686l-40.857-40.857c41.143-30.971 90.457-62.114 149.543-91.657l17.086-8.571 99.429 86.4c0.914 0.743 1.829 1.314 2.914 1.714 1.029 0.4 2.171 0.571 3.257 0.571 1.314 0 2.571-0.286 3.829-0.8l149.429-67.029c0.914-0.4 1.657-0.914 2.343-1.486 1.029-0.857 1.829-2 2.4-3.2 0.571-1.257 0.857-2.571 0.857-3.886 0.057-0.686 0-1.429-0.171-2.171l-32.743-138.571c-0.286-1.086-0.686-2.057-1.257-2.914-0.857-1.314-2-2.4-3.371-3.143-0.686-0.4-1.429-0.686-2.171-0.857s-1.543-0.286-2.343-0.286c-0.171 0-0.343 0-0.514 0-25.029 1.371-64.229 4.857-111.657 13.257-35.543 6.286-75.771 15.371-118.114 28.4-63.543 19.543-131.829 48.057-196.686 89.371-13.371 8.514-26.629 17.6-39.657 27.2l-40.8-40.8c31.543-23.943 64.114-44.571 96.914-62.343 41.429-22.457 83.143-40.4 123.543-54.8 60.571-21.6 118.171-35.143 167.2-43.714s89.543-12.114 116.057-13.6c1.257-0.057 2.514-0.114 3.714-0.114 7.657 0 15.143 1.314 22.057 3.771 10.457 3.657 19.714 9.886 27.143 18 3.714 4.057 6.914 8.629 9.543 13.543 2.629 4.971 4.686 10.286 6 15.943l32.743 138.571c1.2 5.086 1.771 10.229 1.771 15.314 0 6.457-0.914 12.8-2.743 18.857-2.686 9.029-7.257 17.429-13.429 24.571zM299.657 181.371h0.171l533.086 533.086-40.286 40.286-341.829-341.886c-9.143 9.486-17.486 18.743-25.029 27.714-30.114 35.6-48.229 66.514-58.686 88.057-3.257 6.686-5.771 12.457-7.657 17.2l81.143 77.2c6.857 6.514 12.114 14.229 15.657 22.571s5.371 17.314 5.371 26.343c0 9.314-1.943 18.743-5.886 27.6l-79.2 176.686c-2.743 6.114-6.343 11.714-10.629 16.629-6.343 7.371-14.229 13.2-22.914 17.2s-18.286 6.114-28.114 6.114c-4.8 0-9.6-0.514-14.4-1.543l-171.543-37.371c-8.114-1.771-15.771-4.914-22.514-9.2-10.171-6.4-18.457-15.143-24.229-25.486-2.914-5.143-5.143-10.686-6.686-16.514s-2.343-11.886-2.343-18.114c0-1.371 0.057-2.686 0.114-4.057 4.286-75.086 16.514-142.514 32.4-201.429 23.886-88.4 56.057-157.6 82.457-204.914 24.286-43.6 43.714-68.686 47.314-73.2 17.943-25.086 37.143-48.229 57.314-69.543l-32-32h-0.171v-0.171l-214.514-214.457 40.286-40.286 213.314 213.486zM281.429 358.229l-0.514 0.743-0.514 0.686c0 0-0.114 0.171-0.4 0.457-3.943 5.029-37.6 48.857-72.114 125.371-17.257 38.229-34.686 84.686-48.8 138.514s-24.914 115.143-28.8 183.2c0 0.286 0 0.514 0 0.8 0 1.6 0.286 3.143 0.8 4.571 0.743 2.171 2.114 4.171 3.829 5.657 0.857 0.743 1.829 1.429 2.857 1.943s2.114 0.914 3.371 1.2l171.543 37.371c0.743 0.171 1.486 0.229 2.229 0.229 0.971 0 2-0.171 2.914-0.4 1.429-0.4 2.743-1.143 3.886-2.114s2-2.171 2.686-3.6l79.143-176.629c0.629-1.371 0.914-2.8 0.914-4.229 0-1.371-0.286-2.8-0.8-4.057-0.571-1.314-1.314-2.457-2.4-3.486l-106.571-101.314 4-16.114c0.4-1.543 3.714-14.4 13.143-35.2 14.171-31.143 42.171-80.171 94.457-135.143 1.314-1.429 2.686-2.857 4.057-4.229l-77.2-77.257c-18.229 19.371-35.543 40.343-51.714 63.029z" />
<glyph unicode="&#xe92f;" glyph-name="phone" data-tags="phone" d="M936.743 250.514c-6.171 7.2-14.057 13.143-23.143 17.257l-149.429 67.029c-8.686 3.886-18 5.829-27.257 5.829-7.886 0-15.714-1.371-23.086-4.114-7.429-2.743-14.4-6.857-20.571-12.171l-70.457-61.2c-62.057 32.457-111.543 66.286-150.971 98.971-32.171 26.686-57.657 52.629-77.714 76.4-30.114 35.6-48.229 66.514-58.686 88.057-3.257 6.686-5.771 12.457-7.657 17.2l81.143 77.2c6.857 6.514 12.114 14.229 15.657 22.571s5.371 17.314 5.371 26.343c0 9.314-1.943 18.743-5.886 27.6l-79.2 176.686c-2.743 6.114-6.343 11.714-10.629 16.629-6.343 7.371-14.229 13.2-22.914 17.2s-18.286 6.114-28.114 6.114c-4.8 0-9.6-0.514-14.4-1.543l-171.543-37.371c-8.114-1.771-15.771-4.914-22.514-9.2-10.171-6.4-18.457-15.143-24.229-25.486-2.914-5.143-5.143-10.686-6.686-16.514s-2.343-11.886-2.343-18.114c0-1.371 0.057-2.686 0.114-4.057 4.286-75.086 16.514-142.514 32.4-201.429 23.886-88.4 56.057-157.6 82.457-204.914 24.286-43.6 43.714-68.686 47.314-73.2 24.457-34.171 51.257-64.8 79.6-92.057 49.943-48.114 104.571-86.114 159.771-116.057 41.429-22.457 83.143-40.4 123.543-54.8 60.571-21.6 118.171-35.143 167.2-43.714s89.543-12.114 116.057-13.6c1.257-0.057 2.514-0.114 3.714-0.114 7.657 0 15.143 1.314 22.057 3.771 10.457 3.657 19.714 9.886 27.143 18 3.714 4.057 6.914 8.629 9.543 13.543 2.629 4.971 4.686 10.286 6 15.943l32.743 138.571c1.2 5.086 1.771 10.229 1.771 15.314 0 6.457-0.914 12.8-2.743 18.857-2.686 9.029-7.257 17.429-13.429 24.571zM895.543 204.857l-32.743-138.571c-0.286-1.086-0.686-2.057-1.257-2.914-0.857-1.314-2-2.4-3.371-3.143-0.686-0.4-1.429-0.686-2.171-0.857s-1.543-0.286-2.343-0.286c-0.171 0-0.343 0-0.514 0-25.029 1.371-64.229 4.857-111.657 13.257-35.543 6.286-75.771 15.371-118.114 28.4-63.543 19.543-131.829 48.057-196.686 89.371-32.457 20.629-64.057 44.457-93.829 71.943s-57.829 58.686-83.086 94.114l-0.514 0.743-0.514 0.686c0 0-0.114 0.171-0.4 0.457-3.943 5.029-37.6 48.857-72.114 125.371-17.257 38.229-34.686 84.686-48.8 138.514s-24.914 115.143-28.8 183.2c0 0.286 0 0.514 0 0.8 0 1.6 0.286 3.143 0.8 4.571 0.743 2.171 2.114 4.171 3.829 5.657 0.857 0.743 1.829 1.429 2.857 1.943s2.114 0.914 3.371 1.2l171.543 37.371c0.743 0.171 1.486 0.229 2.229 0.229 0.971 0 2-0.171 2.914-0.4 1.429-0.4 2.743-1.143 3.886-2.114s2-2.171 2.686-3.6l79.143-176.629c0.629-1.371 0.914-2.8 0.914-4.229 0-1.371-0.286-2.8-0.8-4.057-0.571-1.314-1.314-2.457-2.4-3.486l-106.571-101.314 4-16.114c0.4-1.543 3.714-14.4 13.143-35.2 14.171-31.143 42.171-80.171 94.457-135.143 52.286-55.029 128.8-115.943 239.543-171.314l17.086-8.571 99.429 86.4c0.914 0.743 1.829 1.314 2.914 1.714 1.029 0.4 2.171 0.571 3.257 0.571 1.314 0 2.571-0.286 3.829-0.8l149.429-67.029c0.914-0.4 1.657-0.914 2.343-1.486 1.029-0.857 1.829-2 2.4-3.2 0.571-1.257 0.857-2.571 0.857-3.886 0.057-0.686 0-1.429-0.171-2.171z" />
<glyph unicode="&#xe930;" glyph-name="photo" data-tags="photo" horiz-adv-x="1170" d="M42.457 877.257v-854.4h1074.914v854.4h-1074.914zM1060.229 820.114v-423.6l-248.514 214.286-341.886-266.8-108.229 93.943-262.057-180.457v562.629h960.686zM99.6 188.114l258 177.657 110.286-95.771 342 266.857 250.343-215.829v-241.086h-960.629v108.171zM220.571 524.171c10.286-6.914 21.6-12.457 33.714-16.229s24.971-5.771 38.286-5.771c17.714 0 34.686 3.6 50.114 10.114 23.143 9.771 42.743 26.057 56.571 46.571 6.914 10.286 12.457 21.6 16.229 33.714s5.771 24.971 5.771 38.286c0 17.714-3.6 34.686-10.114 50.114-9.771 23.143-26.057 42.743-46.571 56.571-10.286 6.914-21.6 12.457-33.714 16.229s-24.971 5.771-38.286 5.771c-17.714 0-34.686-3.6-50.114-10.114-23.143-9.771-42.743-26.057-56.571-46.571-6.914-10.286-12.457-21.6-16.229-33.714s-5.771-24.971-5.771-38.286c0-17.714 3.6-34.686 10.114-50.114 9.771-23.143 26.057-42.686 46.571-56.571zM226.629 658.686c5.429 12.8 14.514 23.771 25.943 31.486 5.714 3.886 12 6.914 18.686 8.971s13.829 3.2 21.314 3.2c9.943 0 19.314-2 27.829-5.6 12.8-5.429 23.771-14.514 31.486-25.943 3.886-5.714 6.914-12 8.971-18.686s3.2-13.829 3.2-21.314c0-9.943-2-19.314-5.6-27.829-5.429-12.8-14.514-23.771-25.943-31.486-5.714-3.886-12-6.914-18.686-8.971s-13.829-3.2-21.314-3.2c-9.943 0-19.314 2-27.829 5.6-12.8 5.429-23.771 14.514-31.486 25.943-3.886 5.714-6.914 12-8.971 18.686s-3.2 13.829-3.2 21.314c0 9.943 2 19.314 5.6 27.829z" />
<glyph unicode="&#xe931;" glyph-name="pie-chart" data-tags="pie-chart" d="M825.143 851.657c-74.4 74.114-179.029 110.057-284.857 104.457v-430.229l305.543 305.543-20.686 20.229zM597.429 663.886v233.829c31.771-2.914 62.057-10.571 90.286-22.343 27.543-11.429 53.086-26.8 75.943-45.314l-166.229-166.171zM930.514 596.514c-28.057 66.629-72.286 123.657-124.686 171.886l-283.086-283.029v398.514c-483.486 20.4-690.4-593.657-294-868.286 394.857-260.857 884 145.314 701.771 580.914zM618.4 10.457c-262.114-86.343-546.571 122.8-541.714 398.8-3.257 215.429 174.971 405.143 388.971 416.571v-478.4l339.943 340c202.4-221.257 99.886-590.857-187.2-676.971z" />
<glyph unicode="&#xe932;" glyph-name="play-circle-o" data-tags="play-circle-o" d="M888.057 607.086c-31.029 73.257-82.743 135.543-147.829 179.543-32.571 22-68.514 39.429-106.857 51.371s-79.143 18.343-121.371 18.343c-56.286 0-110.057-11.429-158.857-32.114-73.257-31.029-135.543-82.743-179.543-147.829-22-32.571-39.429-68.514-51.371-106.857s-18.343-79.143-18.343-121.371c0-56.286 11.429-110.057 32.114-158.857 31.029-73.257 82.743-135.543 147.829-179.543 32.571-22 68.514-39.429 106.857-51.371s79.143-18.343 121.371-18.343c56.286 0 110.057 11.429 158.857 32.114 73.257 31.029 135.543 82.743 179.543 147.829 22 32.571 39.429 68.514 51.371 106.857s18.343 79.143 18.343 121.371c0 56.286-11.429 110-32.114 158.857zM835.429 311.6c-26.629-62.971-71.143-116.629-127.2-154.457-28-18.914-58.914-33.886-91.829-44.171-32.971-10.229-68-15.771-104.4-15.771-48.571 0-94.629 9.829-136.629 27.6-62.971 26.629-116.629 71.143-154.457 127.2-18.914 28-33.886 58.914-44.171 91.829-10.229 32.971-15.771 68-15.771 104.4 0 48.571 9.829 94.629 27.6 136.629 26.629 62.971 71.143 116.629 127.2 154.457 28 18.914 58.914 33.886 91.829 44.171 32.971 10.229 68 15.771 104.4 15.771 48.571 0 94.629-9.829 136.629-27.6 62.971-26.629 116.629-71.143 154.457-127.2 18.914-28 33.886-58.914 44.171-91.829 10.229-32.971 15.771-68 15.771-104.4 0-48.571-9.829-94.629-27.6-136.629zM353.771 196.229l436.4 251.943-436.4 252v-503.943zM675.943 448.229l-264.971-152.971v305.943l264.971-152.971z" />
<glyph unicode="&#xe933;" glyph-name="play" data-tags="play" d="M110.571 904.057v-912.8l829.943 456.743-829.943 456.057zM167.714 807.486l654.171-359.486-654.171-360v719.486z" />
<glyph unicode="&#xe934;" glyph-name="poll-h" data-tags="poll-h" d="M989.771 873.029c-6.857 16.114-18.171 29.771-32.457 39.429-7.143 4.857-15.086 8.686-23.486 11.314-8.457 2.629-17.429 4.057-26.686 4.057h-790.057c-12.286 0-24.171-2.514-34.914-7.086-16.114-6.857-29.771-18.171-39.429-32.457-4.857-7.143-8.686-15.029-11.314-23.486s-4.057-17.429-4.057-26.686v-790.057c0-12.286 2.514-24.171 7.086-34.914 6.857-16.114 18.171-29.771 32.457-39.429 7.143-4.857 15.086-8.686 23.486-11.314 8.457-2.629 17.429-4.057 26.686-4.057h790.057c12.286 0 24.171 2.514 34.914 7.086 16.114 6.857 29.771 18.171 39.429 32.457 4.857 7.143 8.686 15.086 11.314 23.486 2.629 8.457 4.057 17.429 4.057 26.686v790.057c0 12.286-2.514 24.171-7.086 34.914zM939.714 48.057c0-4.571-0.914-8.8-2.571-12.686-1.2-2.914-2.857-5.6-4.857-8.057-2.971-3.657-6.8-6.629-11.029-8.686-2.114-1.029-4.4-1.829-6.743-2.343s-4.8-0.857-7.371-0.857h-790.057c-4.571 0-8.8 0.914-12.686 2.571-2.914 1.2-5.6 2.857-8.057 4.857-3.657 2.971-6.629 6.8-8.686 11.029-1.029 2.114-1.829 4.4-2.343 6.743s-0.857 4.8-0.857 7.371v790.114c0 4.571 0.914 8.8 2.571 12.686 1.2 2.914 2.857 5.6 4.857 8.057 2.971 3.657 6.8 6.629 11.029 8.686 2.114 1.029 4.4 1.829 6.743 2.343s4.8 0.857 7.371 0.857h790.057c4.571 0 8.8-0.914 12.686-2.571 2.914-1.2 5.6-2.857 8.057-4.857 3.657-2.971 6.629-6.8 8.686-11.029 1.029-2.114 1.829-4.4 2.343-6.743s0.857-4.8 0.857-7.371v-790.114zM183.714 654.343h114.286v-554.457h-114.286v554.457zM726 280.8h114.286v-180.914h-114.286v180.914zM545.257 726.229h114.286v-626.343h-114.286v626.343zM364.457 502.514h114.286v-402.629h-114.286v402.629z" />
<glyph unicode="&#xe935;" glyph-name="search" data-tags="search" d="M703.6 257.486c8.743 10.171 16.914 20.914 24.514 32.057 18.8 27.829 33.714 58.514 43.886 91.314s15.714 67.657 15.657 103.714c0 48.057-9.771 94-27.429 135.771-26.514 62.629-70.686 115.829-126.343 153.429-27.829 18.8-58.514 33.714-91.314 43.886s-67.657 15.714-103.714 15.657c-48.057 0-94-9.771-135.771-27.429-62.571-26.457-115.771-70.629-153.371-126.286-18.8-27.829-33.714-58.514-43.886-91.314s-15.714-67.657-15.657-103.714c0-48.057 9.771-94 27.429-135.771 26.514-62.629 70.686-115.829 126.343-153.429 27.829-18.8 58.514-33.714 91.314-43.886s67.657-15.714 103.714-15.657c48.057 0 94 9.771 135.771 27.429 32.229 13.6 61.943 31.943 88.286 54.114l241.257-241.257 40.457 40.457-241.143 240.914zM325.371 215.886c-52.286 22.114-96.857 59.143-128.343 105.714-15.714 23.257-28.171 48.914-36.686 76.286s-13.086 56.457-13.086 86.743c0 40.343 8.171 78.629 22.914 113.486 22.114 52.286 59.143 96.857 105.714 128.343 23.257 15.714 48.914 28.171 76.286 36.686s56.457 13.086 86.743 13.086c40.343 0 78.629-8.171 113.486-22.914 52.286-22.114 96.857-59.143 128.343-105.714 15.714-23.257 28.171-48.914 36.686-76.286s13.086-56.457 13.086-86.743c0-40.343-8.171-78.629-22.914-113.486-22.114-52.286-59.143-96.857-105.714-128.343-23.257-15.714-48.914-28.171-76.286-36.686s-56.457-13.086-86.743-13.086c-40.343 0-78.629 8.171-113.486 22.914z" />
<glyph unicode="&#xe936;" glyph-name="send" data-tags="send" d="M301.771 594.857c6.171-17.543 12.971-33.771 20.857-48.514 5.943-11.029 12.457-21.314 19.943-30.571 5.6-6.971 11.714-13.371 18.457-19.029 5.029-4.286 10.457-8.114 16.171-11.486 8.571-5.086 17.943-8.971 27.829-11.6s20.229-3.886 30.914-3.886c11.543 0 22.686 1.6 33.257 4.8 9.2 2.8 17.943 6.743 25.943 11.657 7.029 4.286 13.543 9.314 19.6 14.857 10.571 9.714 19.6 21.086 27.543 33.6 5.943 9.371 11.314 19.429 16.171 30 7.314 15.886 13.6 33.029 19.2 51.143 5.543 18.114 10.4 37.2 14.743 56.971v0c2.857 13.086 4.229 26.057 4.229 38.686 0 12.343-1.314 24.343-3.714 35.886-4.229 20.229-11.771 39.029-21.771 55.829-7.486 12.629-16.343 24.114-26.171 34.343-14.8 15.314-31.829 27.771-50.286 36.571-9.257 4.4-18.8 7.886-28.629 10.229-9.829 2.4-19.943 3.657-30.114 3.657-10.286 0-20.457-1.314-30.4-3.771-17.429-4.286-34.057-11.829-49.371-22-11.486-7.6-22.229-16.686-32-27.029-14.571-15.486-26.914-33.829-35.657-54.457-4.343-10.286-7.829-21.143-10.229-32.457s-3.657-23.086-3.657-35.143c0-13.429 1.6-27.143 4.971-41.029 6.8-28 13.943-53.886 22.171-77.257zM334.343 736.857c2.857 13.429 8.057 26.114 15.086 37.6 5.257 8.629 11.486 16.571 18.343 23.543 5.143 5.257 10.686 10 16.4 14.057 8.571 6.171 17.6 10.914 26.457 14.057s17.429 4.686 25.314 4.686c5.371 0 11.086-0.686 16.914-2.114 10.229-2.514 20.971-7.314 31.2-14.229 7.657-5.143 15.029-11.486 21.771-18.743 10.057-10.857 18.514-23.829 24.457-38.114 2.971-7.143 5.257-14.629 6.857-22.343s2.4-15.714 2.4-23.886c0-8.571-0.914-17.371-2.914-26.4-5.429-24.629-11.543-47.6-18.629-67.886-5.257-15.2-11.086-28.8-17.314-40.457-4.686-8.743-9.6-16.343-14.629-22.686-3.771-4.743-7.657-8.857-11.543-12.229-2.914-2.571-5.829-4.743-8.8-6.571-4.457-2.743-8.971-4.743-13.771-6.171-4.857-1.371-10.057-2.114-15.943-2.114-6.514 0-12.114 0.8-17.143 2.229-4.4 1.257-8.4 2.914-12.343 5.2-3.429 2-6.743 4.4-10 7.314-2.914 2.571-5.771 5.543-8.629 9.029-4.971 6-9.886 13.486-14.686 22.286-7.143 13.257-13.829 29.6-20.114 48.514-6.286 18.971-12.171 40.514-17.943 64.171-2.286 9.486-3.314 18.629-3.314 27.543 0 8.114 0.857 16.057 2.514 23.714zM773.314 300.229c-17.543 41.429-46.743 76.571-83.543 101.429-18.4 12.457-38.686 22.286-60.4 29.029-21.657 6.743-44.743 10.4-68.571 10.4h-258.286c-31.771 0-62.171-6.457-89.771-18.114-41.429-17.543-76.571-46.743-101.429-83.543-12.457-18.4-22.286-38.686-29.029-60.4-6.743-21.657-10.4-44.743-10.4-68.571v-205.029h57.143v205.029c0 24.057 4.857 46.8 13.6 67.486 13.143 31.086 35.2 57.657 62.857 76.343 13.829 9.371 29.086 16.743 45.371 21.829s33.543 7.771 51.6 7.771h258.343c24.057 0 46.8-4.857 67.486-13.6 31.086-13.143 57.657-35.2 76.343-62.857 9.371-13.829 16.743-29.086 21.829-45.371s7.771-33.543 7.771-51.6v-205.029h57.143v205.029c0.114 31.771-6.343 62.171-18.057 89.771zM954.857 722v28.571h-124.857v124.857h-57.143v-124.857h-124.8v-57.143h124.8v-124.8h57.143v124.8h124.857z" />
<glyph unicode="&#xe937;" glyph-name="sign-out" data-tags="sign-out" d="M681.714 751.257c49.714-33.6 90.914-78.857 119.714-131.771 14.4-26.457 25.657-54.857 33.314-84.686s11.771-61.086 11.771-93.429c0-51.657-10.457-100.743-29.371-145.429-28.343-67.029-75.771-124.114-135.429-164.457-29.829-20.171-62.686-36.114-97.771-47.029s-72.4-16.8-111.143-16.8c-51.657 0-100.743 10.457-145.429 29.371-67.029 28.343-124.114 75.771-164.457 135.429-20.171 29.829-36.114 62.686-47.029 97.771s-16.8 72.4-16.8 111.143c0 31.771 3.943 62.514 11.371 91.943 11.143 44.057 30.114 85.029 55.371 121.314s56.8 67.886 93.086 93.257l-32.743 46.857c-55.657-38.914-101.714-90.686-133.886-151.029-16.057-30.171-28.686-62.457-37.257-96.4-8.571-33.886-13.143-69.429-13.143-105.943 0-59.429 12.057-116.171 33.886-167.714 32.743-77.371 87.314-143.086 156.057-189.543 34.4-23.2 72.286-41.6 112.8-54.229 40.514-12.571 83.543-19.371 128.114-19.371 59.429 0 116.171 12.057 167.714 33.886 77.371 32.743 143.086 87.314 189.543 156.057 23.2 34.4 41.6 72.286 54.229 112.8 12.571 40.514 19.371 83.543 19.371 128.114 0 37.143-4.686 73.2-13.543 107.657-13.314 51.657-35.886 99.543-65.943 141.771-30 42.229-67.486 78.8-110.4 107.829l-32-47.371zM501.371 376.571v467.029h-57.143v-467.029z" />
<glyph unicode="&#xe938;" glyph-name="sliders" data-tags="sliders" d="M457.143 732.571h493.714v-57.143h-493.714v57.143zM73.143 732.571h128v-57.143h-128v57.143zM822.857 440h128v-57.143h-128v57.143zM73.143 440h493.714v-57.143h-493.714v57.143zM645.543 147.429h305.314v-57.143h-305.314v57.143zM73.143 147.429h316.4v-57.143h-316.4v57.143zM671.714 337.029c7.314-2.286 15.143-3.486 23.143-3.486 10.686 0 20.971 2.171 30.343 6.114 14 5.943 25.829 15.771 34.229 28.171 4.171 6.229 7.543 13.086 9.829 20.4s3.486 15.143 3.486 23.143c0 10.686-2.171 20.971-6.114 30.343-5.943 14-15.771 25.829-28.171 34.229-6.229 4.171-13.086 7.543-20.4 9.829s-15.143 3.486-23.143 3.486c-10.686 0-20.971-2.171-30.343-6.114-14-5.943-25.829-15.771-34.229-28.171-4.171-6.229-7.543-13.086-9.829-20.4s-3.486-15.143-3.486-23.143c0-10.686 2.171-20.971 6.114-30.343 5.943-14 15.771-25.829 28.171-34.229 6.171-4.171 13.029-7.543 20.4-9.829zM675.714 419.486c1.543 3.714 4.229 6.914 7.543 9.143 1.657 1.143 3.486 2 5.371 2.571 1.943 0.571 3.943 0.914 6.171 0.914 2.971 0 5.6-0.571 8.057-1.6 3.714-1.543 6.914-4.229 9.143-7.543 1.143-1.657 2-3.486 2.571-5.429s0.914-3.943 0.914-6.171c0-2.971-0.571-5.6-1.6-8.057-1.543-3.714-4.229-6.914-7.543-9.143-1.657-1.143-3.486-2-5.429-2.571s-3.943-0.914-6.171-0.914c-2.971 0-5.6 0.571-8.057 1.6-3.714 1.543-6.914 4.229-9.143 7.543-1.143 1.657-2 3.486-2.571 5.429s-0.914 3.943-0.914 6.171c0.057 2.971 0.629 5.6 1.657 8.057zM285.029 639.429c6.229-4.171 13.086-7.543 20.4-9.829s15.143-3.486 23.143-3.486c10.686 0 20.971 2.171 30.343 6.114 14 5.943 25.829 15.771 34.229 28.171 4.171 6.229 7.543 13.086 9.829 20.4s3.486 15.143 3.486 23.143c0 10.686-2.171 20.971-6.114 30.343-5.943 14-15.771 25.829-28.171 34.229-6.229 4.171-13.086 7.543-20.4 9.829s-15.143 3.486-23.143 3.486c-10.686 0-20.971-2.171-30.343-6.114-14-5.943-25.829-15.771-34.229-28.171-4.171-6.229-7.543-13.086-9.829-20.4s-3.486-15.143-3.486-23.143c0-10.686 2.171-20.971 6.114-30.343 5.886-14 15.714-25.829 28.171-34.229zM309.429 712.057c1.543 3.714 4.229 6.914 7.543 9.143 1.657 1.143 3.486 2 5.371 2.571 1.943 0.571 3.943 0.914 6.171 0.914 2.971 0 5.6-0.571 8.057-1.6 1.829-0.8 3.543-1.829 5.143-3.086 2.343-1.943 4.229-4.343 5.543-7.029 0.629-1.371 1.143-2.8 1.486-4.286s0.514-3.029 0.514-4.686c0-2.971-0.571-5.6-1.6-8.057-1.543-3.714-4.229-6.914-7.543-9.143-1.657-1.143-3.486-2-5.371-2.571-1.943-0.571-3.943-0.914-6.171-0.914-2.971 0-5.6 0.571-8.057 1.6-3.714 1.543-6.914 4.229-9.143 7.543-1.143 1.657-2 3.486-2.571 5.371-0.571 1.943-0.914 3.943-0.914 6.171-0.057 2.971 0.514 5.6 1.543 8.057zM555.543 183.429c-6.229 4.171-13.086 7.543-20.4 9.829s-15.143 3.486-23.143 3.486c-10.686 0-20.971-2.171-30.343-6.114-14-5.943-25.829-15.771-34.229-28.171-4.171-6.229-7.543-13.086-9.829-20.4s-3.486-15.143-3.486-23.143c0-10.686 2.171-20.971 6.114-30.343 5.943-14 15.771-25.829 28.171-34.229 6.229-4.171 13.086-7.543 20.4-9.829s15.143-3.486 23.143-3.486c10.686 0 20.971 2.171 30.343 6.114 14 5.943 25.829 15.771 34.229 28.171 4.171 6.229 7.543 13.086 9.829 20.4s3.486 15.143 3.486 23.143c0 10.686-2.171 20.971-6.114 30.343-5.886 14-15.714 25.829-28.171 34.229zM531.143 110.8c-1.543-3.714-4.229-6.914-7.543-9.143-1.657-1.143-3.486-2-5.429-2.571s-3.943-0.914-6.171-0.914c-2.971 0-5.6 0.571-8.057 1.6-3.714 1.543-6.914 4.229-9.143 7.543-1.143 1.657-2 3.486-2.571 5.429s-0.914 3.943-0.914 6.171c0 2.971 0.571 5.6 1.6 8.057 1.543 3.714 4.229 6.914 7.543 9.143 1.657 1.143 3.486 2 5.371 2.571 1.943 0.571 3.943 0.914 6.171 0.914 2.971 0 5.6-0.571 8.057-1.6 1.829-0.8 3.543-1.829 5.143-3.086 2.343-1.943 4.229-4.343 5.543-7.029 0.629-1.371 1.143-2.8 1.486-4.286s0.514-3.029 0.514-4.686c0-3.029-0.571-5.657-1.6-8.114z" />
<glyph unicode="&#xe939;" glyph-name="smile-o" data-tags="smile-o" d="M913.086 617.429c-33.086 78.171-88.229 144.571-157.714 191.486-34.743 23.486-73.029 42.057-114 54.8-40.914 12.743-84.4 19.6-129.429 19.6-60 0-117.371-12.171-169.429-34.229-78.171-33.086-144.571-88.229-191.486-157.714-23.486-34.743-42.057-73.029-54.8-114-12.743-40.914-19.6-84.4-19.6-129.429 0-60 12.171-117.371 34.229-169.429 33.086-78.171 88.229-144.571 157.714-191.486 34.743-23.486 73.029-42.057 114-54.8 40.914-12.743 84.4-19.6 129.429-19.6 60 0 117.371 12.171 169.429 34.229 78.171 33.086 144.571 88.229 191.486 157.714 23.486 34.743 42.057 73.029 54.8 114 12.743 40.914 19.6 84.4 19.6 129.429 0 60-12.171 117.371-34.229 169.429zM860.457 300.8c-28.686-67.829-76.686-125.657-137.029-166.4-30.171-20.4-63.429-36.514-98.971-47.6-35.486-11.029-73.257-16.971-112.457-16.971-52.286 0-101.943 10.571-147.2 29.714-67.829 28.686-125.657 76.686-166.4 137.029-20.4 30.171-36.514 63.429-47.6 98.971-11.029 35.486-16.971 73.257-16.971 112.457 0 52.286 10.571 101.943 29.714 147.2 28.686 67.829 76.686 125.6 137.029 166.4 30.171 20.4 63.429 36.514 98.971 47.6 35.486 11.029 73.257 16.971 112.457 16.971 52.286 0 101.943-10.571 147.2-29.714 67.829-28.686 125.657-76.686 166.4-137.029 20.4-30.171 36.514-63.429 47.6-98.971 11.029-35.486 16.971-73.257 16.971-112.457 0-52.286-10.571-101.943-29.714-147.2zM689.943 334.8c-20.971-28.686-48.4-52.343-80.114-68.8-15.829-8.229-32.743-14.686-50.514-19.029-17.714-4.4-36.286-6.686-55.429-6.686-25.543 0-50 4.114-72.857 11.771-34.343 11.429-65.086 30.743-90.114 55.829s-44.286 55.886-55.657 90.229l-54.229-17.943c9.486-28.629 23.314-55.257 40.743-79.086 26.114-35.714 60.286-65.2 99.886-85.771 19.771-10.286 40.971-18.343 63.143-23.829s45.371-8.4 69.143-8.4c31.714 0 62.343 5.143 90.971 14.686 42.914 14.286 81.314 38.457 112.514 69.714s55.257 69.714 69.486 112.629l-54.229 17.943c-7.714-22.8-18.8-44.114-32.743-63.257zM339.486 555.429c3.714-2.514 7.886-4.514 12.286-5.886s9.143-2.114 13.943-2.114c6.4 0 12.629 1.314 18.229 3.714 8.457 3.6 15.543 9.486 20.571 16.971 2.514 3.714 4.514 7.886 5.886 12.286s2.114 9.143 2.114 13.943c0 6.4-1.314 12.629-3.714 18.229-3.6 8.457-9.486 15.543-16.971 20.571-3.714 2.514-7.886 4.514-12.286 5.886s-9.143 2.114-13.943 2.114c-6.4 0-12.629-1.314-18.229-3.714-8.457-3.6-15.543-9.486-20.571-16.971-2.514-3.714-4.514-7.886-5.886-12.286s-2.114-9.143-2.114-13.943c0-6.4 1.314-12.629 3.714-18.229 3.6-8.4 9.486-15.486 16.971-20.571zM632.057 555.429c3.714-2.514 7.886-4.514 12.286-5.886s9.143-2.114 13.943-2.114c6.4 0 12.629 1.314 18.229 3.714 8.457 3.6 15.543 9.486 20.571 16.971 2.514 3.714 4.514 7.886 5.886 12.286s2.114 9.143 2.114 13.943c0 6.4-1.314 12.629-3.714 18.229-3.6 8.457-9.486 15.543-16.971 20.571-3.714 2.514-7.886 4.514-12.286 5.886s-9.143 2.114-13.943 2.114c-6.4 0-12.629-1.314-18.229-3.714-8.457-3.6-15.543-9.486-20.571-16.971-2.514-3.714-4.514-7.886-5.886-12.286s-2.114-9.143-2.114-13.943c0-6.4 1.314-12.629 3.714-18.229 3.6-8.4 9.486-15.486 16.971-20.571z" />
<glyph unicode="&#xe93a;" glyph-name="trash" data-tags="trash" d="M635.714 819.886v84.114h-240v-84.114h-214.343v-57.143h668.686v57.143h-214.343zM578.571 846.857v-26.971h-125.714v26.971h125.714zM184 703.943l23.771-708.286h613.486l24.8 737.771h-663.086l1.029-29.486zM766 52.8h-502.971l-20.971 623.543h544.857l-20.914-623.543zM337.143 594.286h57.143v-438.857h-57.143v438.857zM483.429 594.286h57.143v-438.857h-57.143v438.857zM629.714 594.286h57.143v-438.857h-57.143v438.857z" />
<glyph unicode="&#xe93b;" glyph-name="user" data-tags="user" d="M672.914 747.371c-4.229 20.229-11.771 39.029-21.771 55.829-7.486 12.629-16.343 24.114-26.171 34.343-14.8 15.314-31.829 27.771-50.286 36.571-9.257 4.4-18.8 7.886-28.629 10.229-9.829 2.4-19.943 3.657-30.114 3.657-10.286 0-20.457-1.314-30.4-3.771-17.429-4.286-34.057-11.829-49.371-22-11.486-7.6-22.229-16.686-32-27.029-14.571-15.486-26.914-33.829-35.657-54.457-4.343-10.286-7.829-21.143-10.229-32.457s-3.657-23.086-3.657-35.143c0-13.429 1.6-27.143 4.971-41.029 6.8-28 13.943-53.886 22.171-77.257 6.171-17.543 12.971-33.771 20.857-48.514 5.943-11.029 12.457-21.314 19.943-30.571 5.6-6.971 11.714-13.371 18.457-19.029 5.029-4.286 10.457-8.114 16.171-11.486 8.571-5.086 17.943-8.971 27.829-11.6s20.229-3.886 30.914-3.886c11.543 0 22.686 1.6 33.257 4.8 9.2 2.8 17.943 6.743 25.943 11.657 7.029 4.286 13.543 9.314 19.6 14.857 10.571 9.714 19.6 21.086 27.543 33.6 5.943 9.371 11.314 19.429 16.171 30 7.314 15.886 13.6 33.029 19.2 51.143 5.543 18.114 10.4 37.2 14.743 56.971 2.857 13.086 4.229 26.057 4.229 38.686 0 12.343-1.314 24.343-3.714 35.886zM616.629 684.971c-5.429-24.686-11.6-47.657-18.629-67.886-5.257-15.2-11.086-28.8-17.314-40.457-4.686-8.743-9.6-16.343-14.629-22.686-3.829-4.743-7.657-8.857-11.543-12.229-2.914-2.571-5.829-4.743-8.8-6.571-4.4-2.8-8.914-4.8-13.771-6.171-4.8-1.371-10-2.114-15.943-2.114-6.514 0.057-12.114 0.8-17.143 2.229-4.457 1.257-8.457 2.971-12.343 5.2-3.371 1.943-6.686 4.343-10 7.314-2.914 2.571-5.771 5.6-8.629 9.029-5.029 6-9.943 13.486-14.686 22.286-7.086 13.2-13.829 29.543-20.114 48.514s-12.171 40.514-17.943 64.171c-2.286 9.429-3.314 18.629-3.314 27.543 0 8.114 0.857 16.057 2.514 23.714 2.857 13.429 8.114 26.114 15.086 37.6 5.2 8.629 11.429 16.514 18.343 23.543 5.143 5.257 10.686 9.943 16.4 14.057 8.571 6.171 17.6 10.914 26.457 14.057 8.8 3.143 17.429 4.686 25.314 4.686 5.371 0 11.086-0.686 16.914-2.114 10.229-2.514 20.971-7.314 31.2-14.229 7.714-5.2 15.086-11.486 21.771-18.743 10.057-10.857 18.571-23.829 24.457-38.114 2.971-7.143 5.257-14.629 6.857-22.343 1.543-7.714 2.4-15.657 2.4-23.886 0-8.571-0.914-17.371-2.914-26.4zM853.314 300.229c-17.543 41.429-46.743 76.571-83.543 101.429-18.4 12.457-38.686 22.286-60.4 29.029-21.657 6.743-44.743 10.4-68.571 10.4h-258.286c-31.771 0-62.171-6.457-89.771-18.114-41.429-17.543-76.571-46.743-101.429-83.543-12.457-18.4-22.286-38.686-29.029-60.4-6.743-21.657-10.4-44.743-10.4-68.571v-205.029h57.143v205.029c0 24.057 4.857 46.8 13.6 67.486 13.143 31.086 35.2 57.657 62.857 76.343 13.829 9.371 29.086 16.743 45.371 21.829s33.543 7.771 51.6 7.771h258.343c24.057 0 46.8-4.857 67.486-13.6 31.086-13.143 57.657-35.2 76.343-62.857 9.371-13.829 16.743-29.086 21.829-45.371s7.771-33.543 7.771-51.6v-205.029h57.143v205.029c0.114 31.771-6.343 62.171-18.057 89.771z" />
<glyph unicode="&#xe93c;" glyph-name="users" data-tags="users" horiz-adv-x="1170" d="M457.429 659.314c6.171-17.543 12.971-33.771 20.857-48.514 5.943-11.029 12.457-21.314 19.943-30.571 5.6-6.971 11.714-13.371 18.457-19.029 5.029-4.286 10.457-8.114 16.171-11.486 8.571-5.086 17.943-8.971 27.829-11.6s20.229-3.886 30.914-3.886c11.543 0 22.686 1.6 33.257 4.8 9.2 2.8 17.943 6.743 25.943 11.657 7.029 4.286 13.543 9.314 19.6 14.857 10.571 9.714 19.6 21.086 27.543 33.6 5.943 9.371 11.314 19.429 16.171 30 7.314 15.886 13.6 33.029 19.2 51.143 5.543 18.114 10.4 37.2 14.743 56.971v0c2.857 13.086 4.229 26.057 4.229 38.686 0 12.343-1.314 24.343-3.714 35.886-4.229 20.229-11.771 39.029-21.771 55.829-7.486 12.629-16.343 24.114-26.171 34.343-14.8 15.314-31.829 27.771-50.286 36.571-9.257 4.4-18.8 7.886-28.629 10.229-9.829 2.4-19.943 3.657-30.114 3.657-10.286 0-20.457-1.314-30.4-3.771-17.429-4.286-34.057-11.829-49.371-22-11.486-7.6-22.229-16.686-32-27.029-14.571-15.486-26.914-33.829-35.657-54.457-4.343-10.286-7.829-21.143-10.229-32.457s-3.657-23.086-3.657-35.143c0-13.429 1.6-27.143 4.971-41.029 6.8-28 13.943-53.886 22.171-77.257zM490 801.314c2.857 13.429 8.057 26.114 15.086 37.6 5.257 8.629 11.486 16.571 18.343 23.543 5.143 5.257 10.686 10 16.4 14.057 8.571 6.171 17.6 10.914 26.457 14.057s17.429 4.686 25.314 4.686c5.371 0 11.086-0.686 16.914-2.114 10.229-2.514 20.971-7.314 31.2-14.229 7.657-5.143 15.029-11.486 21.771-18.743 10.057-10.857 18.514-23.829 24.457-38.114 2.971-7.143 5.257-14.629 6.857-22.343s2.4-15.714 2.4-23.886c0-8.571-0.914-17.371-2.914-26.4-5.429-24.629-11.543-47.6-18.629-67.886-5.257-15.2-11.086-28.8-17.314-40.457-4.686-8.743-9.6-16.343-14.629-22.686-3.771-4.743-7.657-8.857-11.543-12.229-2.914-2.571-5.829-4.743-8.8-6.571-4.457-2.743-8.971-4.743-13.771-6.171-4.857-1.371-10.057-2.114-15.943-2.114-6.514 0-12.114 0.8-17.143 2.229-4.4 1.257-8.4 2.914-12.343 5.2-3.429 2-6.743 4.4-10 7.314-2.914 2.571-5.771 5.543-8.629 9.029-4.971 6-9.886 13.486-14.686 22.286-7.143 13.257-13.829 29.6-20.114 48.514-6.286 18.971-12.171 40.514-17.943 64.171-2.286 9.486-3.314 18.629-3.314 27.543 0 8.114 0.857 16.057 2.514 23.714zM877.543 364.686c-17.543 41.429-46.743 76.571-83.543 101.429-18.4 12.457-38.686 22.286-60.4 29.029-21.657 6.743-44.743 10.4-68.571 10.4h-155.429c-31.771 0-62.171-6.457-89.771-18.114-41.429-17.543-76.571-46.743-101.429-83.543-12.457-18.4-22.286-38.686-29.029-60.4-6.743-21.657-10.4-44.743-10.4-68.571v-314.743h57.143v314.743c0 24.057 4.857 46.8 13.6 67.486 13.143 31.086 35.2 57.657 62.857 76.343 13.829 9.371 29.086 16.743 45.371 21.829s33.543 7.771 51.6 7.771h155.486c24.057 0 46.8-4.857 67.486-13.6 31.086-13.143 57.657-35.2 76.343-62.857 9.371-13.829 16.743-29.086 21.829-45.371s7.771-33.543 7.771-51.6v-314.743h57.143v314.743c0.114 31.771-6.343 62.171-18.057 89.771zM322.971 477.371c5.943 9.371 11.314 19.429 16.171 30 7.314 15.886 13.6 33.029 19.2 51.143 5.543 18.114 10.4 37.2 14.743 56.971v0c2.857 13.086 4.229 26.057 4.229 38.686 0 12.343-1.314 24.343-3.714 35.886-4.229 20.229-11.771 39.029-21.771 55.829-7.486 12.629-16.343 24.114-26.171 34.343-14.8 15.314-31.829 27.771-50.286 36.571-9.257 4.4-18.8 7.886-28.629 10.229-9.829 2.4-19.943 3.657-30.114 3.657-10.286 0-20.457-1.314-30.4-3.771-17.429-4.286-34.057-11.829-49.371-22-11.486-7.6-22.229-16.686-32-27.029-14.571-15.486-26.914-33.829-35.657-54.457-4.343-10.286-7.829-21.143-10.229-32.457s-3.657-23.086-3.657-35.143c0-13.429 1.6-27.143 4.971-41.029 6.8-28 13.943-53.829 22.171-77.257 6.171-17.543 12.971-33.771 20.857-48.514 5.943-11.029 12.457-21.314 19.943-30.571 5.6-6.971 11.714-13.371 18.457-19.029 5.029-4.286 10.457-8.114 16.171-11.486 8.571-5.086 17.943-8.971 27.829-11.6s20.229-3.886 30.914-3.886c11.543 0 22.686 1.6 33.257 4.8 9.2 2.8 17.943 6.743 25.943 11.657 7.029 4.286 13.543 9.314 19.6 14.857 10.571 9.714 19.6 21.086 27.543 33.6zM266.743 496.686c-3.771-4.743-7.657-8.857-11.543-12.229-2.914-2.571-5.829-4.743-8.8-6.571-4.457-2.743-8.971-4.743-13.771-6.171-4.857-1.371-10.057-2.114-15.943-2.114-6.514 0-12.114 0.8-17.143 2.229-4.4 1.257-8.4 2.914-12.343 5.2-3.429 2-6.743 4.4-10 7.314-2.914 2.571-5.771 5.543-8.629 9.029-4.971 6-9.886 13.486-14.686 22.286-7.143 13.257-13.829 29.6-20.114 48.514-6.286 18.971-12.171 40.514-17.943 64.171-2.286 9.486-3.314 18.629-3.314 27.543 0 8.114 0.857 16.057 2.514 23.714 2.857 13.429 8.057 26.114 15.086 37.6 5.257 8.629 11.486 16.571 18.343 23.543 5.143 5.257 10.686 10 16.4 14.057 8.571 6.171 17.6 10.914 26.457 14.057s17.429 4.686 25.314 4.686c5.371 0 11.086-0.686 16.914-2.114 10.229-2.514 20.971-7.314 31.2-14.229 7.657-5.143 15.029-11.486 21.771-18.743 10.057-10.857 18.514-23.829 24.457-38.114 2.971-7.143 5.257-14.629 6.857-22.343s2.4-15.714 2.4-23.886c0-8.571-0.914-17.371-2.914-26.4-5.429-24.629-11.543-47.6-18.629-67.886-5.257-15.2-11.086-28.8-17.314-40.457-4.686-8.743-9.6-16.343-14.629-22.686zM157.371 373.657c-41.429-17.543-76.571-46.743-101.429-83.543-12.457-18.4-22.286-38.686-29.029-60.4-6.743-21.657-10.4-44.743-10.4-68.571v-199.886h57.143v199.886c0 24.057 4.857 46.8 13.6 67.486 13.143 31.086 35.2 57.657 62.857 76.343 13.829 9.371 29.086 16.743 45.371 21.829s33.543 7.771 51.6 7.771h28.571v57.143h-28.571c-31.657 0.114-62.114-6.343-89.714-18.057zM797.143 615.429c5.771-26.229 12.4-51.257 20.457-74.4 6.057-17.371 12.914-33.657 20.914-48.629 6-11.2 12.686-21.714 20.286-31.257 5.657-7.143 11.886-13.771 18.686-19.714 5.086-4.457 10.514-8.514 16.343-12.114 8.686-5.371 18.171-9.657 28.229-12.514s20.686-4.343 31.657-4.343c11.257 0 22.171 1.429 32.514 4.286 9.029 2.514 17.657 6.171 25.6 10.8 6.971 4.057 13.429 8.8 19.429 14.114 5.2 4.686 10.057 9.771 14.571 15.2 7.886 9.543 14.743 20.171 20.971 31.657 9.257 17.257 17.029 36.514 24.057 57.6s13.257 44.057 19.2 68.686c3.371 13.886 4.971 27.6 4.971 41.029 0 12.229-1.314 24.171-3.771 35.657-4.286 20.057-12 38.743-22.114 55.371-7.6 12.457-16.514 23.829-26.457 33.943-14.914 15.143-32 27.429-50.457 36.114-9.2 4.343-18.8 7.771-28.571 10.114s-19.829 3.657-29.943 3.657c-10.343 0-20.571-1.314-30.571-3.771-17.486-4.286-34.171-12-49.429-22.286-11.486-7.714-22.171-16.914-31.829-27.371-14.457-15.714-26.629-34.229-35.257-55.029s-13.6-43.829-13.6-68.114c-0.114-12.629 1.257-25.6 4.114-38.686v0zM852.571 678.4c2.857 13.714 8.057 26.629 14.971 38.286 5.2 8.743 11.371 16.743 18.171 23.829 5.143 5.314 10.571 10.057 16.286 14.229 8.514 6.229 17.486 10.971 26.286 14.114s17.429 4.686 25.371 4.686c5.314 0 11.029-0.686 16.857-2.114 10.229-2.514 21.029-7.257 31.371-14.114 7.714-5.143 15.2-11.371 21.943-18.571 10.171-10.743 18.686-23.6 24.629-37.6 2.971-7.029 5.314-14.343 6.914-21.886s2.457-15.371 2.457-23.371c0-8.914-1.029-18.114-3.314-27.543-6.514-26.914-13.257-51.086-20.571-71.829-5.486-15.543-11.257-29.143-17.314-40.457-4.571-8.514-9.257-15.714-14.057-21.657-3.6-4.457-7.2-8.171-10.857-11.257-2.743-2.286-5.486-4.286-8.286-5.943-4.229-2.457-8.571-4.286-13.429-5.6-4.857-1.257-10.171-2-16.343-2-6.229 0-11.657 0.857-16.743 2.343-4.457 1.314-8.571 3.2-12.686 5.714-3.6 2.171-7.143 4.857-10.629 8.114-6.171 5.657-12.229 13.086-18.057 22.229-4.343 6.857-8.571 14.629-12.514 23.257-6 12.971-11.486 27.771-16.457 44s-9.486 33.829-13.543 52.457v0c-2 9.029-2.914 17.829-2.914 26.4-0.057 8.343 0.8 16.457 2.457 24.286zM1153.714-38.686v199.886c0 31.771-6.457 62.171-18.114 89.771-17.543 41.429-46.743 76.571-83.543 101.429-18.4 12.457-38.686 22.286-60.4 29.029-21.657 6.743-44.743 10.4-68.571 10.4h-28.571v-57.143h28.571c24.057 0 46.8-4.857 67.486-13.6 31.086-13.143 57.657-35.2 76.343-62.857 9.371-13.829 16.743-29.086 21.829-45.371s7.771-33.543 7.771-51.6v-199.886h57.2z" />
<glyph unicode="&#xe93d;" glyph-name="video-camera" data-tags="video-camera" d="M767.943 554.8v-203.086l260.057-260.057v710.229l-260.057-247.086zM970.857 229.657l-145.771 145.771v154.857l145.771 138.457v-439.086zM-2.057 177.657h725.029v540.686h-725.029v-540.686zM55.086 661.2h610.743v-426.4h-610.743v426.4z" />
<glyph unicode="&#xe93e;" glyph-name="video-slash" data-tags="video-slash" d="M767.943 554.8v-203.086l260.057-260.057v710.229l-260.057-247.086zM970.857 229.657l-145.771 145.771v154.857l145.771 138.457v-439.086zM665.829 661.2v-265.029l57.143-57.143v379.314h-379.314l57.143-57.143zM321.771 659.429l-231.371 231.371 0.457 0.457-39.943 39.943-40.4-40.4 172.457-172.457h-185.029v-540.686l725.029 0.686 212.629-212.629 39.943 39.943-653.771 653.771zM665.829 234.8h-610.743v426.4h185.029l425.714-425.714v-0.686z" />
<glyph unicode="&#xe93f;" glyph-name="volume-mute" data-tags="volume-mute" horiz-adv-x="1170" d="M1067.451 6.097l-925.114 925.114-40.406-40.406 231.377-231.377h-100.743v-419.297h236.657l383.703-306.429v206.103l174.114-174.114 40.411 40.406zM289.709 297.274v305.011h100.737l60.211-60.211v-244.8h-160.949zM795.783 52.469l-287.977 229.983v202.48l287.977-287.977v-144.486zM795.783 839.503v-470.154h57.143v589.166l-324.451-259.971 35.731-44.594zM564.206 653.949v0z" />
<glyph unicode="&#xe940;" glyph-name="volume" data-tags="volume" horiz-adv-x="1170" d="M477.6 659.429h-245.029v-419.314h236.686l383.714-306.4v1024.8l-375.371-299.086zM450.629 297.257h-160.914v305.029h160.971v-305.029zM795.771 196.971v-144.457l-288 230v327.486l6.343 5.086-0.171 0.229 281.829 224.171v-642.514z" />
<glyph unicode="&#xe941;" glyph-name="cart" data-tags="cart" d="M384 32c0-53.019-42.981-96-96-96s-96 42.981-96 96c0 53.019 42.981 96 96 96s96-42.981 96-96zM1024 32c0-53.019-42.981-96-96-96s-96 42.981-96 96c0 53.019 42.981 96 96 96s96-42.981 96-96zM1024 448v384h-768c0 35.346-28.654 64-64 64h-192v-64h128l48.074-412.054c-29.294-23.458-48.074-59.5-48.074-99.946 0-70.696 57.308-128 128-128h768v64h-768c-35.346 0-64 28.654-64 64 0 0.218 0.014 0.436 0.016 0.656l831.984 127.344z" />
<glyph unicode="&#xe942;" glyph-name="microphoneVoice" data-tags="microphoneVoice" horiz-adv-x="702" d="M640.255 653.419v0-204.319c0-0.151 0-0.329 0-0.508 0-40.458-8.361-78.964-23.451-113.883l0.716 1.862c-44.889-104.624-147.018-176.575-265.952-176.575-0.161 0-0.321 0-0.482 0h0.025c-0.177 0-0.386-0.001-0.596-0.001-40.425 0-78.9 8.346-113.797 23.41l1.864-0.716c-104.624 44.889-176.575 147.018-176.575 265.952 0 0.161 0 0.321 0 0.482v-0.025 204.319h-62.009v-204.319c0-0.138 0-0.301 0-0.464 0-182.944 140.111-333.163 318.88-349.205l1.349-0.098v-101.284h-206.397v-62.049h476.921v62.049h-208.638v101.284c38.904 3.439 74.759 12.761 107.937 27.105l-2.253-0.867c63.829 27.531 116.277 71.229 153.668 126.020l0.783 1.216c37.531 54.885 59.932 122.701 59.932 195.749 0 0.234 0 0.469-0.001 0.703v-0.036 204.197zM351.071 247.225v0c-0.012 0-0.026 0-0.041 0-109.070 0-197.492 88.407-197.515 197.472v317.787c0 109.085 88.431 197.515 197.515 197.515 0.014 0 0.029 0 0.043 0h-0.002c0.060 0 0.132 0 0.204 0 109.062 0 197.475-88.412 197.475-197.475v0-317.785c0-0.012 0-0.026 0-0.041 0-109.062-88.412-197.475-197.475-197.475-0.072 0-0.143 0-0.215 0h0.011z" />
<glyph unicode="&#xe943;" glyph-name="microphoneVoiceBlue" data-tags="microphoneVoiceBlue" horiz-adv-x="702" d="M640.255 653.419v0-204.319c0-0.151 0-0.329 0-0.508 0-40.458-8.361-78.964-23.451-113.883l0.716 1.862c-44.889-104.624-147.018-176.575-265.952-176.575-0.161 0-0.321 0-0.482 0h0.025c-0.177 0-0.386-0.001-0.596-0.001-40.425 0-78.9 8.346-113.797 23.41l1.864-0.716c-104.624 44.889-176.575 147.018-176.575 265.952 0 0.161 0 0.321 0 0.482v-0.025 204.319h-62.009v-204.319c0-0.138 0-0.301 0-0.464 0-182.944 140.111-333.163 318.88-349.205l1.349-0.098v-101.284h-206.397v-62.049h476.921v62.049h-208.638v101.284c38.904 3.439 74.759 12.761 107.937 27.105l-2.253-0.867c63.829 27.531 116.277 71.229 153.668 126.020l0.783 1.216c37.531 54.885 59.932 122.701 59.932 195.749 0 0.234 0 0.469-0.001 0.703v-0.036 204.197zM351.071 247.225v0c-0.012 0-0.026 0-0.041 0-109.070 0-197.492 88.407-197.515 197.472v317.787c0 109.085 88.431 197.515 197.515 197.515 0.014 0 0.029 0 0.043 0h-0.002c0.060 0 0.132 0 0.204 0 109.062 0 197.475-88.412 197.475-197.475v0-317.785c0-0.012 0-0.026 0-0.041 0-109.062-88.412-197.475-197.475-197.475-0.072 0-0.143 0-0.215 0h0.011z" />
<glyph unicode="&#xe944;" glyph-name="star-full" data-tags="star-full, rate, star, favorite, bookmark" d="M1024 562.95l-353.78 51.408-158.22 320.582-158.216-320.582-353.784-51.408 256-249.538-60.432-352.352 316.432 166.358 316.432-166.358-60.434 352.352 256.002 249.538z" />
<glyph unicode="&#xe945;" glyph-name="star-empty" data-tags="star-empty, rate, star, favorite, bookmark" d="M1024 562.95l-353.78 51.408-158.22 320.582-158.216-320.582-353.784-51.408 256-249.538-60.432-352.352 316.432 166.358 316.432-166.358-60.434 352.352 256.002 249.538zM512 206.502l-223.462-117.48 42.676 248.83-180.786 176.222 249.84 36.304 111.732 226.396 111.736-226.396 249.836-36.304-180.788-176.222 42.678-248.83-223.462 117.48z" />
</font>
</defs>
</svg>
