<?xml version="1.0" encoding="UTF-8"?>
<svg enable-background="new 0 0 1792 1792" version="1.1" viewBox="0 0 1792 1792" fill="white" xml:space="preserve" xmlns="http://www.w3.org/2000/svg">
<polygon points="1387.2 471.5 1316.5 542.2 1608.8 834.5 943.5 835.3 943.1 194.7 1229 480.6 1299.7 409.8 891.6 1.8 480.1 413.3 550.8 484 843.1 191.7 843.4 835.5 194.4 836.3 479.2 551.5 408.5 480.8 0.4 888.9 411.9 1300.4 482.6 1229.7 190.3 937.4 189.7 936.4 843.5 935.5 843.9 1595 560.2 1311.3 489.5 1382 897.5 1790.1 1309 1378.6 1238.3 1307.9 946 1600.2 943.9 1614.3 943.5 935.4 1605.8 934.5 1320 1220.3 1390.7 1291.1 1798.7 883"/>
</svg>