<?xml version="1.0" encoding="utf-8"?>
<!-- Generator: Adobe Illustrator 24.3.0, SVG Export Plug-In . SVG Version: 6.00 Build 0)  -->
<svg version="1.1" id="Layer_1" fill="white" xmlns="http://www.w3.org/2000/svg" xmlns:xlink="http://www.w3.org/1999/xlink" x="0px" y="0px"
	 viewBox="0 0 1792 1792" style="enable-background:new 0 0 1792 1792;" xml:space="preserve">
<polygon points="1407,515.1 1345.8,576.2 1604.7,835.1 943.5,835.3 943.1,173.8 1215.2,445.9 1276.5,384.6 895.6,3.7 515.7,383.6 
	578.7,446.5 843.1,181.3 843.4,835.5 188,836.4 447.8,576.6 385.2,514.1 4.4,894.9 385.3,1275.8 457.1,1205.2 189.8,938 
	187.4,935.5 843.5,935.5 843.9,1591.9 587,1335.1 515.8,1406.3 896,1786.2 1276.7,1405.6 1206.6,1335.5 943.9,1598.2 943.9,1598.2 
	943.5,935.4 1606.6,935.5 1337.3,1205.1 1406.9,1274.8 1785.8,894.9 "/>
</svg>
