<svg version="1.1" xmlns="http://www.w3.org/2000/svg" xmlns:xlink="http://www.w3.org/1999/xlink" x="0px" y="0px" width="45px"
	 height="45px" viewBox="0 0 40 40" style="enable-background:new 0 0 40 40;" xml:space="preserve">
<style type="text/css">
	.st0{fill:#FFFFFF;}
	.st1{fill:none;}
</style>
<defs>
</defs>
<g id="Group_20_1_" transform="translate(716 1724)">
	<g transform="matrix(1, 0, 0, 1, -716, -1724)">
		<path id="Rectangle_18-2_1_" class="st0" d="M10,0h20c5.52,0,10,4.48,10,10v20c0,5.52-4.48,10-10,10H10C4.48,40,0,35.52,0,30V10
			C0,4.48,4.48,0,10,0z"/>
	</g>
	<g id="users_1_" transform="translate(-736.9 -1728.2)">
		<path id="Path_79_1_" class="st1" d="M38.78,17.64c0.13,0.4,0.29,0.8,0.49,1.17c0.1,0.19,0.22,0.37,0.35,0.54
			c0.06,0.08,0.13,0.15,0.21,0.22c0.07,0.07,0.15,0.13,0.24,0.18c0.09,0.05,0.2,0.1,0.3,0.13c0.13,0.04,0.27,0.05,0.41,0.05
			c0.13,0,0.26-0.02,0.39-0.05c0.12-0.03,0.23-0.08,0.33-0.15c0.08-0.05,0.15-0.1,0.21-0.16c0.1-0.09,0.2-0.19,0.28-0.3
			c0.13-0.17,0.25-0.36,0.35-0.55c0.16-0.31,0.3-0.64,0.42-0.98c0.18-0.54,0.33-1.08,0.45-1.64c0.09-0.4,0.09-0.81,0.01-1.21
			c-0.04-0.18-0.09-0.36-0.17-0.54c-0.14-0.34-0.34-0.65-0.59-0.92c-0.16-0.17-0.33-0.32-0.53-0.45c-0.23-0.16-0.48-0.27-0.75-0.34
			c-0.13-0.03-0.27-0.05-0.41-0.05c-0.21,0-0.42,0.04-0.61,0.11c-0.23,0.08-0.44,0.2-0.64,0.34c-0.14,0.1-0.28,0.21-0.4,0.34
			c-0.17,0.17-0.32,0.36-0.44,0.57c-0.17,0.28-0.29,0.59-0.36,0.91c-0.04,0.19-0.06,0.38-0.06,0.57c0,0.22,0.03,0.45,0.08,0.67
			C38.49,16.66,38.63,17.18,38.78,17.64z"/>
		<path id="Path_80_1_" class="st1" d="M34.16,19.04c0.09-0.4,0.09-0.81,0.01-1.21c-0.04-0.18-0.09-0.36-0.17-0.54
			c-0.14-0.34-0.34-0.65-0.59-0.92c-0.16-0.17-0.33-0.32-0.53-0.45c-0.23-0.16-0.48-0.27-0.75-0.34c-0.13-0.03-0.27-0.05-0.41-0.05
			c-0.21,0-0.42,0.04-0.61,0.11c-0.23,0.08-0.44,0.2-0.64,0.34c-0.14,0.1-0.28,0.21-0.4,0.34c-0.17,0.17-0.32,0.36-0.44,0.57
			c-0.17,0.28-0.29,0.59-0.36,0.91c-0.04,0.19-0.06,0.38-0.06,0.57c0,0.22,0.03,0.45,0.08,0.67c0.14,0.57,0.28,1.09,0.43,1.55
			c0.13,0.4,0.29,0.8,0.49,1.17c0.1,0.19,0.22,0.37,0.35,0.54c0.06,0.08,0.13,0.15,0.21,0.22c0.07,0.07,0.15,0.13,0.24,0.18
			c0.09,0.05,0.2,0.1,0.3,0.13c0.13,0.04,0.27,0.05,0.41,0.05c0.13,0,0.26-0.02,0.38-0.05c0.12-0.03,0.23-0.08,0.33-0.15
			c0.08-0.05,0.15-0.1,0.21-0.16c0.1-0.09,0.2-0.19,0.28-0.3c0.13-0.17,0.25-0.36,0.35-0.55c0.16-0.31,0.3-0.64,0.42-0.98
			C33.89,20.14,34.04,19.59,34.16,19.04z"/>
		<path id="Path_81_1_" class="st1" d="M47.1,19.04c0.1,0.45,0.21,0.88,0.33,1.27c0.11,0.36,0.24,0.72,0.4,1.06
			c0.09,0.19,0.19,0.38,0.3,0.56c0.12,0.2,0.27,0.38,0.44,0.54c0.08,0.07,0.16,0.14,0.26,0.2c0.1,0.06,0.2,0.11,0.31,0.14
			c0.13,0.04,0.26,0.06,0.4,0.06c0.13,0,0.27-0.02,0.4-0.05c0.11-0.03,0.22-0.07,0.32-0.14c0.07-0.04,0.14-0.09,0.2-0.14
			c0.1-0.08,0.18-0.17,0.26-0.27c0.13-0.16,0.24-0.34,0.34-0.52c0.16-0.31,0.3-0.64,0.42-0.98c0.18-0.5,0.34-1.08,0.5-1.73
			c0.05-0.22,0.08-0.44,0.08-0.67c0-0.19-0.02-0.38-0.06-0.56c-0.04-0.18-0.09-0.36-0.17-0.53c-0.14-0.34-0.34-0.64-0.59-0.91
			c-0.16-0.17-0.34-0.32-0.53-0.45c-0.23-0.16-0.49-0.27-0.76-0.34c-0.13-0.03-0.27-0.05-0.41-0.05c-0.21,0-0.42,0.04-0.61,0.11
			c-0.23,0.08-0.44,0.2-0.64,0.34c-0.14,0.1-0.27,0.22-0.39,0.34c-0.17,0.17-0.31,0.37-0.44,0.58c-0.17,0.29-0.29,0.6-0.36,0.92
			c-0.04,0.19-0.06,0.39-0.06,0.59C47.03,18.62,47.05,18.84,47.1,19.04L47.1,19.04z"/>
		<path id="Path_82_1_" d="M37.55,18.28c0.14,0.4,0.3,0.79,0.5,1.17c0.14,0.26,0.3,0.51,0.48,0.74c0.13,0.17,0.28,0.32,0.45,0.46
			c0.12,0.1,0.25,0.2,0.39,0.28c0.21,0.12,0.44,0.22,0.67,0.28c0.24,0.06,0.49,0.1,0.75,0.09c0.27,0,0.54-0.04,0.8-0.12
			c0.22-0.07,0.43-0.16,0.63-0.28c0.17-0.1,0.33-0.22,0.47-0.36c0.26-0.24,0.48-0.51,0.66-0.81c0.15-0.23,0.28-0.47,0.39-0.72
			c0.18-0.4,0.34-0.81,0.46-1.24c0.13-0.44,0.25-0.9,0.36-1.38l0,0c0.07-0.31,0.1-0.62,0.1-0.93c0-0.29-0.03-0.58-0.09-0.87
			c-0.1-0.48-0.28-0.93-0.53-1.35c-0.18-0.3-0.39-0.58-0.63-0.83c-0.35-0.36-0.76-0.66-1.21-0.88c-0.22-0.11-0.45-0.19-0.69-0.25
			c-0.48-0.12-0.98-0.12-1.46,0c-0.42,0.11-0.83,0.29-1.19,0.53c-0.28,0.19-0.54,0.41-0.77,0.65c-0.36,0.38-0.65,0.83-0.86,1.31
			c-0.11,0.25-0.19,0.52-0.25,0.78c-0.06,0.28-0.09,0.56-0.09,0.85c0,0.33,0.04,0.67,0.12,0.99C37.17,17.09,37.35,17.71,37.55,18.28
			z M38.33,14.85c0.07-0.32,0.19-0.63,0.36-0.91c0.13-0.21,0.27-0.4,0.44-0.57c0.12-0.12,0.26-0.24,0.4-0.34
			c0.2-0.14,0.41-0.26,0.64-0.34c0.2-0.07,0.4-0.11,0.61-0.11c0.14,0,0.27,0.02,0.41,0.05c0.27,0.07,0.52,0.19,0.75,0.34
			c0.19,0.13,0.37,0.28,0.53,0.45c0.25,0.27,0.45,0.58,0.59,0.92c0.07,0.17,0.13,0.35,0.17,0.54c0.04,0.19,0.06,0.38,0.06,0.58
			c0,0.21-0.02,0.43-0.07,0.64c-0.12,0.55-0.27,1.1-0.45,1.64c-0.11,0.34-0.25,0.66-0.42,0.98c-0.1,0.19-0.22,0.38-0.35,0.55
			c-0.08,0.11-0.18,0.21-0.28,0.3c-0.07,0.06-0.14,0.11-0.21,0.16c-0.1,0.06-0.22,0.11-0.33,0.15c-0.13,0.03-0.25,0.05-0.39,0.05
			c-0.14,0-0.28-0.02-0.41-0.05c-0.1-0.03-0.21-0.07-0.3-0.13c-0.09-0.05-0.17-0.11-0.24-0.18c-0.08-0.07-0.14-0.14-0.21-0.22
			c-0.14-0.17-0.25-0.35-0.35-0.54c-0.19-0.38-0.36-0.77-0.49-1.17c-0.15-0.46-0.29-0.98-0.43-1.55c-0.05-0.22-0.08-0.44-0.08-0.67
			C38.27,15.23,38.29,15.04,38.33,14.85L38.33,14.85z"/>
		<path id="Path_83_1_" d="M47.69,25.39c-0.42-0.99-1.12-1.84-2.02-2.45c-0.92-0.62-2-0.95-3.11-0.95h-3.75
			c-3.07,0-5.57,2.49-5.57,5.56c0,0,0,0,0,0.01v7.6h1.38v-7.6c0-2.31,1.86-4.18,4.17-4.19c0.01,0,0.01,0,0.02,0h3.75
			c2.31,0,4.18,1.86,4.19,4.17c0,0.01,0,0.01,0,0.02v7.6h1.38v-7.6C48.13,26.81,47.98,26.08,47.69,25.39z"/>
		<path id="Path_84_1_" d="M34.3,22.67c0.15-0.23,0.28-0.47,0.39-0.72c0.18-0.4,0.34-0.81,0.46-1.24c0.13-0.44,0.25-0.9,0.36-1.38
			l0,0c0.07-0.31,0.1-0.62,0.1-0.93c0-0.29-0.03-0.58-0.09-0.87c-0.1-0.48-0.28-0.93-0.53-1.35c-0.18-0.3-0.39-0.58-0.63-0.83
			c-0.35-0.36-0.76-0.66-1.21-0.88c-0.22-0.11-0.45-0.19-0.69-0.25c-0.48-0.12-0.98-0.12-1.46,0c-0.42,0.11-0.83,0.29-1.19,0.53
			c-0.72,0.48-1.29,1.17-1.63,1.97c-0.11,0.25-0.19,0.52-0.25,0.78c-0.06,0.28-0.09,0.56-0.09,0.85c0,0.33,0.04,0.67,0.12,0.99
			c0.16,0.68,0.34,1.3,0.54,1.87c0.14,0.4,0.3,0.79,0.5,1.17c0.14,0.26,0.3,0.51,0.48,0.74c0.13,0.17,0.28,0.32,0.45,0.46
			c0.12,0.1,0.25,0.2,0.39,0.28c0.21,0.12,0.44,0.22,0.67,0.28c0.24,0.06,0.49,0.1,0.75,0.09c0.27,0,0.54-0.04,0.8-0.12
			c0.22-0.07,0.43-0.16,0.63-0.28c0.17-0.1,0.33-0.22,0.47-0.36C33.88,23.24,34.11,22.97,34.3,22.67z M32.94,22.2
			c-0.08,0.11-0.18,0.21-0.28,0.3c-0.07,0.06-0.14,0.11-0.21,0.16c-0.1,0.06-0.22,0.11-0.33,0.15c-0.13,0.03-0.25,0.05-0.39,0.05
			c-0.14,0-0.28-0.02-0.41-0.05c-0.1-0.03-0.21-0.07-0.3-0.13c-0.09-0.05-0.17-0.11-0.24-0.18c-0.08-0.07-0.14-0.14-0.21-0.22
			c-0.14-0.17-0.25-0.35-0.36-0.54c-0.19-0.38-0.36-0.77-0.49-1.17c-0.15-0.46-0.29-0.98-0.43-1.55c-0.05-0.22-0.08-0.44-0.08-0.66
			c0-0.19,0.02-0.38,0.06-0.57c0.07-0.32,0.19-0.63,0.36-0.91c0.13-0.21,0.27-0.4,0.44-0.57c0.12-0.12,0.26-0.24,0.4-0.34
			c0.2-0.14,0.41-0.26,0.64-0.34c0.2-0.07,0.4-0.11,0.61-0.11c0.14,0,0.27,0.02,0.41,0.05c0.27,0.07,0.52,0.19,0.75,0.34
			c0.19,0.13,0.37,0.28,0.53,0.45c0.25,0.27,0.45,0.58,0.59,0.92c0.07,0.17,0.13,0.35,0.17,0.54c0.04,0.19,0.06,0.38,0.06,0.58
			c0,0.21-0.02,0.43-0.07,0.64c-0.12,0.55-0.27,1.1-0.45,1.64c-0.11,0.34-0.25,0.66-0.42,0.98C33.2,21.85,33.08,22.04,32.94,22.2
			L32.94,22.2z"/>
		<path id="Path_85_1_" d="M30.3,25.17c-0.99,0.42-1.84,1.12-2.45,2.02c-0.62,0.92-0.95,2-0.95,3.11v4.83h1.38v-4.83
			c0-2.31,1.86-4.18,4.17-4.19c0,0,0.01,0,0.01,0h0.69v-1.38h-0.69C31.72,24.74,30.99,24.89,30.3,25.17z"/>
		<path id="Path_86_1_" d="M45.75,19.34c0.13,0.61,0.29,1.21,0.49,1.8c0.14,0.4,0.31,0.8,0.51,1.17c0.14,0.27,0.3,0.52,0.49,0.76
			c0.14,0.17,0.29,0.33,0.45,0.48c0.12,0.11,0.26,0.21,0.4,0.29c0.21,0.13,0.44,0.23,0.68,0.3c0.25,0.07,0.51,0.1,0.76,0.1
			c0.27,0,0.53-0.03,0.79-0.1c0.22-0.06,0.42-0.15,0.62-0.26c0.17-0.1,0.32-0.21,0.47-0.34c0.13-0.11,0.24-0.24,0.35-0.37
			c0.19-0.24,0.36-0.49,0.51-0.76c0.23-0.45,0.43-0.91,0.58-1.39c0.17-0.51,0.32-1.06,0.46-1.66c0.08-0.32,0.12-0.66,0.12-0.99
			c0-0.29-0.03-0.58-0.09-0.86c-0.1-0.47-0.28-0.92-0.53-1.34c-0.18-0.3-0.4-0.57-0.64-0.82c-0.35-0.36-0.76-0.66-1.22-0.87
			c-0.22-0.1-0.45-0.19-0.69-0.24c-0.48-0.12-0.98-0.12-1.46,0c-0.43,0.11-0.83,0.29-1.19,0.54c-0.28,0.19-0.54,0.41-0.77,0.66
			c-0.36,0.39-0.65,0.84-0.85,1.33c-0.22,0.52-0.33,1.08-0.33,1.65C45.65,18.72,45.68,19.03,45.75,19.34L45.75,19.34z M47.09,17.82
			c0.07-0.33,0.19-0.64,0.36-0.92c0.12-0.21,0.27-0.4,0.44-0.57c0.12-0.13,0.25-0.24,0.39-0.34c0.19-0.14,0.41-0.26,0.64-0.34
			c0.2-0.07,0.4-0.11,0.61-0.11c0.14,0,0.27,0.02,0.41,0.05c0.27,0.07,0.53,0.19,0.76,0.34c0.19,0.13,0.37,0.28,0.53,0.45
			c0.25,0.27,0.45,0.57,0.59,0.91c0.07,0.17,0.13,0.35,0.17,0.53c0.04,0.19,0.06,0.37,0.06,0.56c0,0.22-0.03,0.45-0.08,0.66
			c-0.16,0.65-0.32,1.23-0.5,1.73c-0.11,0.34-0.25,0.66-0.42,0.98c-0.1,0.18-0.21,0.36-0.34,0.52c-0.08,0.1-0.17,0.19-0.26,0.27
			c-0.06,0.05-0.13,0.1-0.2,0.14c-0.1,0.06-0.21,0.1-0.32,0.13c-0.13,0.03-0.26,0.05-0.4,0.05c-0.14,0-0.27-0.02-0.4-0.06
			c-0.11-0.03-0.21-0.08-0.31-0.14c-0.09-0.06-0.18-0.12-0.26-0.2c-0.17-0.16-0.31-0.34-0.44-0.54c-0.11-0.18-0.21-0.37-0.3-0.56
			c-0.16-0.34-0.29-0.7-0.4-1.06c-0.12-0.39-0.23-0.82-0.33-1.27l0,0c-0.05-0.21-0.07-0.42-0.07-0.64
			C47.03,18.2,47.05,18.01,47.09,17.82L47.09,17.82z"/>
		<path id="Path_87_1_" d="M54.36,35.13v-4.83c0-3.07-2.49-5.57-5.56-5.57c0,0,0,0-0.01,0H48.1v1.38h0.69
			c2.31,0,4.18,1.86,4.19,4.17c0,0.01,0,0.01,0,0.02v4.83L54.36,35.13L54.36,35.13z"/>
	</g>
</g>
</svg>
