<?xml version="1.0" standalone="no"?>
<!DOCTYPE svg PUBLIC "-//W3C//DTD SVG 20010904//EN"
 "http://www.w3.org/TR/2001/REC-SVG-20010904/DTD/svg10.dtd">
<svg version="1.0" xmlns="http://www.w3.org/2000/svg"
 width="64.000000pt" height="64.000000pt" viewBox="0 0 64.000000 64.000000"
 preserveAspectRatio="xMidYMid meet">

<g transform="translate(0.000000,64.000000) scale(0.100000,-0.100000)"
fill="currentColor" stroke="none">
<path d="M194 606 c-37 -16 -70 -56 -79 -94 -4 -19 -15 -32 -35 -39 -46 -17
-52 -48 -48 -241 4 -231 -22 -212 288 -212 219 0 240 1 261 19 24 19 24 22 24
211 0 189 0 192 -24 211 -19 15 -39 19 -107 19 -82 0 -84 1 -84 24 0 50 -82
117 -142 116 -13 -1 -37 -7 -54 -14z m112 -22 c84 -40 88 -158 9 -210 -33 -22
-97 -21 -131 0 -28 19 -54 71 -54 108 0 35 37 88 73 103 42 19 62 18 103 -1z
m-182 -163 c17 -40 68 -81 100 -81 13 0 16 -11 16 -56 0 -37 4 -53 11 -49 6 4
9 28 8 53 -3 46 -3 46 31 53 40 8 100 68 100 99 0 18 6 20 84 20 76 0 86 -2
100 -22 9 -12 16 -35 16 -50 l0 -28 -75 0 c-101 0 -115 -13 -115 -110 0 -97
14 -110 115 -110 l75 0 0 -28 c0 -15 -7 -38 -16 -50 -15 -22 -18 -22 -254 -22
-236 0 -239 0 -254 22 -23 33 -23 343 0 376 22 32 38 27 58 -17z m466 -171 l0
-90 -73 0 c-43 0 -78 5 -85 12 -7 7 -12 40 -12 78 0 38 5 71 12 78 7 7 42 12
85 12 l73 0 0 -90z"/>
<path d="M205 568 c-35 -19 -55 -52 -55 -91 0 -31 7 -46 35 -74 32 -32 40 -35
77 -30 60 8 93 45 93 103 0 39 -5 50 -33 75 -34 31 -80 38 -117 17z m109 -39
c34 -40 33 -74 -3 -110 -33 -32 -58 -36 -100 -14 -75 38 -43 155 43 155 26 0
40 -7 60 -31z"/>
<path d="M232 530 c-19 -30 -15 -50 13 -60 27 -10 34 -30 10 -30 -8 0 -15 5
-15 10 0 6 -4 10 -10 10 -15 0 -12 -21 6 -42 16 -17 18 -17 35 4 11 11 19 25
19 29 0 10 -26 36 -42 41 -7 3 -8 9 -3 18 6 10 10 10 21 -4 8 -12 14 -14 19
-6 6 10 -21 50 -34 50 -3 0 -12 -9 -19 -20z"/>
<path d="M197 323 c-11 -10 -8 -51 3 -58 6 -4 10 8 10 29 0 37 -2 41 -13 29z"/>
<path d="M280 295 c0 -14 5 -25 10 -25 6 0 10 11 10 25 0 14 -4 25 -10 25 -5
0 -10 -11 -10 -25z"/>
<path d="M480 250 c0 -25 4 -39 10 -35 6 3 10 19 10 35 0 16 -4 32 -10 35 -6
4 -10 -10 -10 -35z"/>
</g>
</svg>
