<?xml version="1.0" standalone="no"?>
<!DOCTYPE svg PUBLIC "-//W3C//DTD SVG 20010904//EN"
 "http://www.w3.org/TR/2001/REC-SVG-20010904/DTD/svg10.dtd">
<svg version="1.0" xmlns="http://www.w3.org/2000/svg"
 width="512.000000pt" height="512.000000pt" viewBox="0 0 512.000000 512.000000"
 preserveAspectRatio="xMidYMid meet">

<g transform="translate(0.000000,512.000000) scale(0.100000,-0.100000)"
fill="#000000" stroke="none">
<path d="M485 4354 c-171 -41 -336 -174 -414 -334 -74 -152 -71 -81 -71 -1460
0 -1379 -3 -1308 71 -1460 56 -114 169 -228 279 -282 147 -73 -16 -68 2210
-68 2226 0 2063 -5 2210 68 110 54 223 168 279 282 74 152 71 81 71 1460 0
1046 -3 1246 -15 1305 -49 233 -245 435 -475 489 -96 23 -4052 22 -4145 0z
m4095 -434 c24 -14 58 -45 75 -68 l30 -44 0 -1248 0 -1248 -30 -44 c-17 -23
-51 -54 -75 -68 l-45 -25 -1975 0 -1975 0 -45 25 c-24 14 -58 45 -75 68 l-30
44 0 1248 0 1248 30 43 c32 46 77 77 128 89 18 5 912 7 1987 7 l1955 -2 45
-25z"/>
<path d="M1219 3306 c-98 -26 -149 -95 -149 -202 1 -102 51 -178 139 -209 59
-20 87 -19 146 9 81 37 126 110 126 202 0 138 -127 235 -262 200z"/>
<path d="M2081 3308 c-129 -23 -198 -174 -137 -303 28 -60 46 -77 110 -106 42
-18 53 -20 95 -9 117 29 184 105 184 209 0 138 -115 234 -252 209z"/>
<path d="M2880 3288 c-107 -58 -139 -202 -69 -314 24 -39 87 -79 140 -89 114
-21 238 92 239 216 0 63 -40 139 -92 175 -58 41 -154 46 -218 12z"/>
<path d="M3740 3288 c-52 -27 -104 -97 -113 -153 -10 -60 10 -128 51 -175 78
-92 178 -102 288 -29 86 59 110 203 48 291 -60 85 -179 114 -274 66z"/>
<path d="M1220 2241 c-102 -31 -160 -106 -160 -206 0 -187 227 -290 351 -158
53 57 58 66 68 117 14 75 -3 131 -58 186 -60 60 -132 82 -201 61z"/>
<path d="M3766 2235 c-85 -30 -127 -89 -134 -187 -11 -149 97 -249 236 -220
125 26 196 135 170 259 -14 63 -85 135 -150 151 -59 15 -73 15 -122 -3z"/>
<path d="M2045 2216 c-59 -27 -77 -46 -104 -106 -38 -83 -19 -171 49 -237 59
-58 62 -58 570 -58 508 0 511 0 570 58 70 68 87 155 46 242 -27 59 -46 77
-106 104 -43 20 -64 21 -510 21 l-465 0 -50 -24z"/>
</g>
</svg>
