<!-- Generated by IcoMoon.io -->
<svg version="1.1" xmlns="http://www.w3.org/2000/svg" width="1024" height="1024" viewBox="0 0 1024 1024">
<title></title>
<g id="icomoon-ignore">
</g>
<path fill="#0093ff" d="M97 153.2c-34.2 8.2-67.2 34.8-82.8 66.8-14.8 30.4-14.2 16.2-14.2 292s-0.6 261.6 14.2 292c11.2 22.8 33.8 45.6 55.8 56.4 29.4 14.6-3.2 13.6 442 13.6s412.6 1 442-13.6c22-10.8 44.6-33.6 55.8-56.4 14.8-30.4 14.2-16.2 14.2-292 0-209.2-0.6-249.2-3-261-9.8-46.6-49-87-95-97.8-19.2-4.6-810.4-4.4-829 0zM916 240c4.8 2.8 11.6 9 15 13.6l6 8.8v499.2l-6 8.8c-3.4 4.6-10.2 10.8-15 13.6l-9 5h-790l-9-5c-4.8-2.8-11.6-9-15-13.6l-6-8.8v-499.2l6-8.6c6.4-9.2 15.4-15.4 25.6-17.8 3.6-1 182.4-1.4 397.4-1.4l391 0.4 9 5z"></path>
<path fill="#0093ff" d="M243.8 362.8c-19.6 5.2-29.8 19-29.8 40.4 0.2 20.4 10.2 35.6 27.8 41.8 11.8 4 17.4 3.8 29.2-1.8 16.2-7.4 25.2-22 25.2-40.4 0-27.6-25.4-47-52.4-40z"></path>
<path fill="#0093ff" d="M416.2 362.4c-25.8 4.6-39.6 34.8-27.4 60.6 5.6 12 9.2 15.4 22 21.2 8.4 3.6 10.6 4 19 1.8 23.4-5.8 36.8-21 36.8-41.8 0-27.6-23-46.8-50.4-41.8z"></path>
<path fill="#0093ff" d="M576 366.4c-21.4 11.6-27.8 40.4-13.8 62.8 4.8 7.8 17.4 15.8 28 17.8 22.8 4.2 47.6-18.4 47.8-43.2 0-12.6-8-27.8-18.4-35-11.6-8.2-30.8-9.2-43.6-2.4z"></path>
<path fill="#0093ff" d="M748 366.4c-10.4 5.4-20.8 19.4-22.6 30.6-2 12 2 25.6 10.2 35 15.6 18.4 35.6 20.4 57.6 5.8 17.2-11.8 22-40.6 9.6-58.2-12-17-35.8-22.8-54.8-13.2z"></path>
<path fill="#0093ff" d="M244 575.8c-20.4 6.2-32 21.2-32 41.2 0 37.4 45.4 58 70.2 31.6 10.6-11.4 11.6-13.2 13.6-23.4 2.8-15-0.6-26.2-11.6-37.2-12-12-26.4-16.4-40.2-12.2z"></path>
<path fill="#0093ff" d="M753.2 577c-17 6-25.4 17.8-26.8 37.4-2.2 29.8 19.4 49.8 47.2 44 25-5.2 39.2-27 34-51.8-2.8-12.6-17-27-30-30.2-11.8-3-14.6-3-24.4 0.6z"></path>
<path fill="#0093ff" d="M409 580.8c-11.8 5.4-15.4 9.2-20.8 21.2-7.6 16.6-3.8 34.2 9.8 47.4 11.8 11.6 12.4 11.6 114 11.6s102.2 0 114-11.6c14-13.6 17.4-31 9.2-48.4-5.4-11.8-9.2-15.4-21.2-20.8-8.6-4-12.8-4.2-102-4.2h-93l-10 4.8z"></path>
</svg>
