<svg version="1.1" xmlns="http://www.w3.org/2000/svg" xmlns:xlink="http://www.w3.org/1999/xlink" x="0px" y="0px" width="112.8px" height="72.1px" viewBox="0 0 112.8 72.1" style="overflow:visible;enable-background:new 0 0 112.8 72.1;" xml:space="preserve"><style type="text/css">.st0{fill:#FF3B00}</style><defs> </defs> <path id="Path_1_1_" class="st0" d="M110.4,49.8c1,9.7-2.6,14.7-8.6,13.8c-3.6-0.2-8.1-2.3-13.3-4.7c3.8,3.3,7.2,6.6,10.2,9 c4.8,3.8,8.6,5.4,11.3,3.2c2.6-2.1,3.9-8,2-15.6C111.5,53.6,111,51.7,110.4,49.8z"/> <path id="Path_2_1_" class="st0" d="M25.4,37.9c2.3-10.3,7.4-19.7,14.8-27.2C45.7,5,53,1.4,60.9,0.4c-1.4-0.2-2.9-0.3-4.5-0.4 C43.6,0.6,33.9,4.2,24,14C12.7,25.5,4.7,39.9,0.9,55.5C-1,63.1,0.3,69,2.9,71.1c2.6,2.2,6.5,0.7,11.3-3.2c4.9-3.9,11-10.2,18.3-15.3 C26,51.8,23.6,47.4,25.4,37.9z"/> <path id="Path_3_1_" class="st0" d="M50.8,25.1c-1.1,14,12.8,18.4,31,23.1c8.8,2.2,16.2,3.8,20.6,0.8c4.4-2.7,5.8-10,3.5-19.3 c-0.5-1.7-1-3.4-1.6-4.9c0.3,4.4-0.7,8.1-2.8,10.4c-2.8,3.2-7.6,3.8-13.4,2.6C76.3,35.2,66.5,28,66.2,18C65.7,9.5,71.6,1.9,80,0.3 C78.7,0.1,77.4,0,76,0C62.3-0.2,51.5,11.5,50.8,25.1z"/> <path id="Path_4_1_" class="st0" d="M82.7,10.4c0.7,5,5.3,9.5,10.5,10.3c6,1.1,9.6-4,8.6-10.5C100.7,4.1,96.7,0,91.5,0 c-4.9-0.1-8.9,3.8-9,8.7C82.5,9.3,82.6,9.8,82.7,10.4z"/> </svg>