<svg xmlns="http://www.w3.org/2000/svg" width="17.239" height="25.134" viewBox="0 0 17.239 25.134"><defs><style>.a{fill:#b2b2b2;}</style></defs><path class="a" d="M344.115,494h0v5.015a7.053,7.053,0,0,1-.558,2.762,7.083,7.083,0,0,1-6.539,4.334h0a7.054,7.054,0,0,1-2.762-.557,7.083,7.083,0,0,1-4.334-6.539V494H328.4v5.015a8.606,8.606,0,0,0,7.86,8.585v2.486h-5.066v1.523H342.9v-1.523h-5.121V507.6a8.532,8.532,0,0,0,2.594-.644,8.65,8.65,0,0,0,3.791-3.123,8.582,8.582,0,0,0,1.471-4.821V494Z" transform="translate(-328.4 -486.475)"/><path class="a" d="M580.648,17.495h0a4.848,4.848,0,0,1-4.849-4.847v-7.8A4.848,4.848,0,0,1,580.648,0h0A4.847,4.847,0,0,1,585.5,4.847v7.8A4.847,4.847,0,0,1,580.648,17.495Z" transform="translate(-572.031)"/></svg>