<?xml version="1.0" encoding="UTF-8"?>
<svg enable-background="new 0 0 1792 1792" version="1.1" fill="white" viewBox="0 0 1792 1792" xml:space="preserve" xmlns="http://www.w3.org/2000/svg">
<style type="text/css">
	.st0{fill:none;}
</style>

	<line class="st0" x1="1648.8" x2="1648.8" y1="623.1" y2="623.1"/>
	<polygon points="1066.9 146 1066.9 723.1 1648.8 723.1 1648.8 623.1 1235.5 623.1 1701.6 144.6 1630 74.8 1166.9 550.3 1166.9 146"/>

<polygon points="706.4 1637.2 706.4 1060.1 124.4 1060.1 124.4 1160.1 537.8 1160.1 87.6 1627.3 159.2 1697.1 606.4 1233 606.4 1637.2"/>

	<line class="st0" x1="1157.4" x2="1157.4" y1="1640.2" y2="1640.2"/>
	<polygon points="1634.5 1058.2 1057.4 1058.2 1057.4 1640.2 1157.4 1640.2 1157.4 1226.8 1635.9 1692.9 1705.7 1621.3 1230.2 1158.2 1634.5 1158.2"/>

<polygon points="143.3 697.8 720.4 697.8 720.4 115.8 620.4 115.8 620.4 529.2 153.2 79 83.4 150.6 547.5 597.8 143.3 597.8"/>
</svg>
