<?xml version="1.0" encoding="utf-8"?>
<svg version="1.1" id="Слой_1" xmlns="http://www.w3.org/2000/svg" xmlns:xlink="http://www.w3.org/1999/xlink" x="0px" y="0px"
	 viewBox="0 0 1792 1792" style="enable-background:new 0 0 1792 1792;" xml:space="preserve">
<style type="text/css">
	.st0{fill:#FFF;}
</style>
<g>
	<path class="st0" d="M570,942.9l13.5,64.5c4.8,23.2,25.2,39.8,48.9,39.8h801.4c23.2,0,43.5-16.1,48.7-38.8l124.9-543.2
		c3.4-14.8-0.2-30.5-9.6-42.3s-23.9-18.9-39.1-18.9H737.5c-27.6,0-50,22.4-50,50c0,27.6,22.4,50,50,50v0h758.4L1394,947.2H673
		l-5.3-25.3l-0.2-1L523,294.5l0-0.2c-0.2-0.7-0.4-1.5-0.6-2.2c0-0.1-0.1-0.2-0.1-0.3c-0.2-0.7-0.4-1.4-0.7-2.1
		c0-0.1-0.1-0.3-0.1-0.4c-0.2-0.6-0.4-1.2-0.7-1.8c-0.1-0.2-0.2-0.4-0.2-0.6c-0.2-0.5-0.4-1-0.6-1.5c-0.1-0.3-0.3-0.6-0.4-0.9
		c-0.2-0.4-0.4-0.8-0.6-1.2c-0.2-0.4-0.4-0.8-0.6-1.1c-0.2-0.3-0.3-0.6-0.5-0.8c-0.3-0.5-0.5-0.9-0.8-1.4c-0.1-0.2-0.2-0.4-0.4-0.6
		c-0.3-0.5-0.6-1-1-1.5c-0.1-0.1-0.2-0.2-0.2-0.4c-0.4-0.6-0.8-1.1-1.2-1.6l-0.2-0.2c-0.4-0.6-0.9-1.1-1.3-1.7l-0.2-0.2
		c-0.4-0.5-0.9-1.1-1.4-1.6c-0.1-0.1-0.2-0.2-0.2-0.3c-0.4-0.5-0.9-1-1.4-1.4c-0.1-0.1-0.3-0.3-0.4-0.4c-0.4-0.4-0.8-0.8-1.3-1.2
		c-0.2-0.2-0.4-0.4-0.6-0.6c-0.4-0.3-0.7-0.7-1.1-1c-0.3-0.2-0.6-0.5-0.9-0.7c-0.3-0.2-0.6-0.5-0.9-0.7c-0.4-0.3-0.8-0.6-1.2-0.9
		c-0.2-0.2-0.4-0.3-0.7-0.5c-0.5-0.3-1-0.7-1.5-1c-0.2-0.1-0.3-0.2-0.5-0.3c-0.6-0.4-1.1-0.7-1.7-1c-0.1-0.1-0.2-0.1-0.3-0.2
		c-0.6-0.3-1.2-0.7-1.9-1l-0.2-0.1c-0.6-0.3-1.3-0.6-1.9-0.9l-0.3-0.1c-0.6-0.3-1.2-0.5-1.9-0.8c-0.1-0.1-0.3-0.1-0.4-0.2
		c-0.6-0.2-1.2-0.4-1.7-0.6c-0.2-0.1-0.4-0.1-0.6-0.2c-0.5-0.2-1-0.3-1.5-0.5c-0.3-0.1-0.6-0.2-0.9-0.3c-0.4-0.1-0.8-0.2-1.2-0.3
		c-0.4-0.1-0.8-0.2-1.3-0.3c-0.3-0.1-0.6-0.1-1-0.2c-0.5-0.1-1.1-0.2-1.6-0.3c-0.2,0-0.4-0.1-0.7-0.1c-0.6-0.1-1.3-0.2-1.9-0.2
		c-0.1,0-0.3,0-0.4,0c-0.7-0.1-1.4-0.1-2.2-0.2c-0.1,0-0.2,0-0.3,0c-0.7,0-1.5-0.1-2.3-0.1l-0.2,0H233.3c-27.6,0-50,22.4-50,50
		s22.4,50,50,50h201.2L570,942.9z"/>
	<path class="st0" d="M1522.7,1180.4c-15.5-10.5-32.7-18.8-51-24.5c-18.3-5.7-37.8-8.8-57.8-8.8c-26.7,0-52.4,5.4-75.7,15.3
		c-35,14.8-64.6,39.4-85.6,70.4c-10.5,15.5-18.8,32.7-24.5,51c-5.7,18.3-8.8,37.8-8.8,57.8c0,26.7,5.4,52.4,15.3,75.7
		c14.8,35,39.4,64.6,70.4,85.6c15.5,10.5,32.7,18.8,51,24.5c18.3,5.7,37.8,8.8,57.8,8.8c26.7,0,52.4-5.4,75.7-15.3
		c35-14.8,64.6-39.4,85.6-70.4c10.5-15.5,18.8-32.7,24.5-51c5.7-18.3,8.8-37.8,8.8-57.8c0-26.7-5.4-52.4-15.3-75.7
		C1578.3,1231,1553.7,1201.4,1522.7,1180.4z M1501,1378.5c-7.1,16.9-19.2,31.4-34.3,41.6c-7.6,5.1-15.9,9.1-24.7,11.9
		c-8.8,2.7-18.2,4.2-28.1,4.2c-13.2,0-25.5-2.6-36.8-7.4c-16.9-7.1-31.4-19.2-41.6-34.3c-5.1-7.6-9.1-15.9-11.9-24.7
		c-2.7-8.8-4.2-18.2-4.2-28.1c0-13.2,2.6-25.5,7.4-36.8c7.1-16.9,19.2-31.4,34.3-41.6c7.6-5.1,15.9-9.1,24.7-11.9
		c8.8-2.7,18.2-4.2,28.1-4.2c13.2,0,25.5,2.6,36.8,7.4c16.9,7.1,31.4,19.2,41.6,34.3c5.1,7.6,9.1,15.9,11.9,24.7
		c2.7,8.8,4.2,18.2,4.2,28.1C1508.4,1354.9,1505.8,1367.2,1501,1378.5z"/>
	<path class="st0" d="M848.1,1180.4c-15.5-10.5-32.7-18.8-51-24.5c-18.3-5.7-37.8-8.8-57.8-8.8c-26.7,0-52.4,5.4-75.7,15.3
		c-35,14.8-64.6,39.4-85.6,70.4c-10.5,15.5-18.8,32.7-24.5,51c-5.7,18.3-8.8,37.8-8.8,57.8c0,26.7,5.4,52.4,15.3,75.7
		c14.8,35,39.4,64.6,70.4,85.6c15.5,10.5,32.7,18.8,51,24.5c18.3,5.7,37.8,8.8,57.8,8.8c26.7,0,52.4-5.4,75.7-15.3
		c35-14.8,64.6-39.4,85.6-70.4c10.5-15.5,18.8-32.7,24.5-51c5.7-18.3,8.8-37.8,8.8-57.8c0-26.7-5.4-52.4-15.3-75.7
		C903.7,1231,879.1,1201.4,848.1,1180.4z M826.4,1378.5c-7.1,16.9-19.2,31.4-34.3,41.6c-7.6,5.1-15.9,9.1-24.7,11.9
		c-8.8,2.7-18.2,4.2-28.1,4.2c-13.2,0-25.5-2.6-36.8-7.4c-16.9-7.1-31.4-19.2-41.6-34.3c-5.1-7.6-9.1-15.9-11.9-24.7
		c-2.7-8.8-4.2-18.2-4.2-28.1c0-13.2,2.6-25.5,7.4-36.8c7.1-16.9,19.2-31.4,34.3-41.6c7.6-5.1,15.9-9.1,24.7-11.9
		c8.8-2.7,18.2-4.2,28.1-4.2c13.2,0,25.5,2.6,36.8,7.4c16.9,7.1,31.4,19.2,41.6,34.3c5.1,7.6,9.1,15.9,11.9,24.7
		c2.7,8.8,4.2,18.2,4.2,28.1C833.8,1354.9,831.2,1367.2,826.4,1378.5z"/>
</g>
</svg>
